<?xml version="1.0" encoding="utf-8"?>
<!-- Generator: Adobe Illustrator 16.0.3, SVG Export Plug-In . SVG Version: 6.00 Build 0)  -->
<!DOCTYPE svg PUBLIC "-//W3C//DTD SVG 1.1//EN" "http://www.w3.org/Graphics/SVG/1.1/DTD/svg11.dtd">
<svg version="1.1" id="Ebene_1" xmlns="http://www.w3.org/2000/svg" xmlns:xlink="http://www.w3.org/1999/xlink" x="0px" y="0px"
	 width="600px" height="300px" viewBox="0 0 600 300" enable-background="new 0 0 600 300" xml:space="preserve">
<g>
	<path d="M128.69,260.44c4.96-3.56,9.65-7.45,13.09-12.71C135.48,249.8,133.16,256.34,128.69,260.44z"/>
	<path d="M158.62,263.66c3.1-3.66,6.19-7.3,9.3-10.97C163.38,254.97,160.26,258.63,158.62,263.66z"/>
	<path d="M110.02,252.33c3.81-1.37,4.91-5.42,7.52-7.99C113.35,245.33,112.33,249.47,110.02,252.33z"/>
	<path d="M117.53,244.34c0.07-0.02,0.13-0.04,0.19-0.05c0.05-0.14,0.14-0.24,0.2-0.36c-0.09,0.08-0.18,0.19-0.27,0.29
		C117.61,244.26,117.57,244.3,117.53,244.34z"/>
	<path d="M149.37,256.46c2.5-1.58,4.96-3.24,6.3-7.19C151.58,250.57,149.69,252.78,149.37,256.46z"/>
	<path d="M141.23,264.75c4.28-2.32,6.39-4.96,8-8.13C145.12,257.02,143.72,260.46,141.23,264.75z"/>
	<path d="M149.23,256.62c0.04,0,0.08-0.01,0.12-0.02c0-0.05,0.01-0.09,0.02-0.14c-0.03,0.02-0.06,0.04-0.09,0.06
		C149.27,256.55,149.25,256.58,149.23,256.62z"/>
	<path d="M102.87,262.18c1.56-0.51,2.16-1.58,2.38-3.74C103.24,259.08,102.18,259.87,102.87,262.18z"/>
	<path d="M114.09,265.51c1.26-0.61,2.5-1.02,2-2.89C115.29,263.44,114.16,263.95,114.09,265.51z"/>
	<path d="M100.42,244.22c-0.25,0.71,0.15,1.06,0.7,0.7c0.35-0.22,0.47-0.87,0.66-1.27c-0.26-0.29-0.44-0.49-0.63-0.71
		C100.9,243.37,100.58,243.76,100.42,244.22z"/>
	<path d="M95.07,250.63c-0.44,0.48-0.77,1.05-1.16,1.6c0.28,0.09,0.57,0.21,0.85,0.29c0.56-0.37,1.28-0.68,1.11-1.56
		C95.84,250.79,95.16,250.55,95.07,250.63z"/>
	<path d="M114.19,210.79c-3.21,0.78-4.85,3.28-6.01,6.31c-0.03,0.04-0.05,0.07-0.08,0.1c-0.03,0.02-0.07-0.14-0.1-0.14
		c-0.01,0.03-0.02-0.06-0.03-0.06c0.01,0,0.01,0,0.02,0c0.03,0,0.07,0.14,0.11,0.14c0.01-0.05,0.03,0.01,0.05-0.06
		c3.18-0.78,4.03-4.07,6-6.18c0.14-0.08,0.25-0.18,0.39-0.25c0.05-0.14,0.13-0.21,0.17-0.35c-0.08,0.08-0.16,0.19-0.25,0.26
		C114.36,210.64,114.28,210.73,114.19,210.79z"/>
	<path d="M89.29,239.46c3.09-2.21,5.47-5.14,7.44-8.45c-2.82,2.43-6.13,4.42-7.43,8.28c-0.09,0.14-0.29,0.25-0.29,0.41
		c0,0.02,0,0.02,0,0.02s-0.02,0.02-0.02,0.03c0.03,0,0.07,0.04,0.1,0.04C89.14,239.67,89.22,239.57,89.29,239.46z"/>
	<path d="M76.26,201.68l0.05-0.02c0,0,0,0,0,0.02c0.05-0.02,0.1-0.03,0.16-0.05c-0.02-0.02-0.03-0.03-0.04-0.07
		c-0.02,0-0.02,0-0.03-0.02L76.26,201.68z"/>
	<path d="M273.08,109.18c-1.45-6.84-1.16-15.08-6.79-20.91c-1.86-1.92-2.8-5.19-3.44-8.03c-3.68-16.16-13.01-28.24-25.11-37.83
		c-7.78-6.17-14.55-13.81-24.94-16.44c-6.5-1.63-12.98-4.23-19.54-6.14c-10.63-3.09-21.69-3.52-32.44-5.59
		c-12.13-2.33-23.69-0.98-35.28,1.79c-8.3,1.99-16.93,1.11-25.1,5.2c-5.32,2.67-11.9,1.63-18.09,4.06
		c-9.41,3.71-18.57,7.52-27.25,12.85c-9.44,5.8-17.97,13.04-25.5,21.11C17.16,72.62,8.01,88.79,4.03,107.14
		c-2.87,13.25-8.31,27.04-0.52,40.8c0.96,1.7,1.61,3.63,3.08,4.96c12.94,11.71,25.62,23.8,42.59,28.94c2.8,0.83,5.7,2.45,3.75,7.29
		c-4.56,11.31-3.86,23.5-4.2,35.45c-0.14,5.31,1.39,10.54,0.38,16.03c-0.54,2.93,0.17,6.45,2.5,8.84
		c5.36,5.53,11.03,10.71,16.85,15.69c7.9,6.8,17,11.58,25.39,17.55c5.38,3.84,11.37,7,17.97,1.77c1.85-1.48,4.43-1,6.5,0.27
		c2.18,1.36,4.61,1.67,6.94,2.43c8.11,2.64,16.02-1.44,24.01-0.54c11.53,1.75,20.72-2.42,27.76-12.14c2.3-3.18,5.66-4.78,9.15-4.95
		c12.8-0.58,21.14-8.77,29.13-18.02c3.85-4.47,6.16-10.22,10.97-13.91c3.29-2.53,4.08-6.56,4.7-10.83c0.73-5.07,0.24-9.93-0.2-14.93
		c-1.09-12.46-5.47-23.84-10.41-34.87c-1.99-4.46-2.33-6.26,2.21-8.35c16.03-7.43,31.22-16.29,42.19-31.38
		C270.79,128.97,275.16,119.15,273.08,109.18z M167.59,55.36c0.62-5.17,4.44-8.02,10.23-8.48c3.66-0.3,7.33-0.77,10.63-1.12
		c12.13,0.63,22.67,4.49,31.23,13.33c2.9,2.98,5.76,6.43,3.67,11.26c-1.9,4.46-7.46,7.75-12.37,6.19
		c-12-3.85-24.62-5.47-36.17-10.98C170.64,63.56,166.91,60.99,167.59,55.36z M58.48,224.5c1.74-0.97,2.71,0.88,3.15,2.07
		c2.05,5.58,8.71,7.68,9.45,14.2c-2.38,2.33-4.57,2.07-6.22-0.87c-2.13-3.83-6.14-6.29-7.13-10.85
		C57.39,227.56,56.68,225.5,58.48,224.5z M73.27,163.95c2.13-0.49,2.56,1.97,3.55,3.5c-1.36,2.04-2.11,5-4.79,5.29
		c-2,0.2-3.83-1.65-3.66-3.81C68.59,166.16,70.92,164.53,73.27,163.95z M69.04,161.79c0-0.63,0.25-1.26,0.46-2.25
		c0.66,0.61,1.32,0.99,1.29,1.26c-0.08,0.61-0.35,1.39-0.79,1.75C69.45,163,69.04,162.33,69.04,161.79z M98.22,149.79
		c1.79,1.39,4.2,2.91,4.16,5.13c-0.04,2.12-2.04,4.8-4.31,4.57c-2.11-0.21-4.09-2.54-3.94-5.1
		C94.25,152.18,95.92,150.55,98.22,149.79z M96.35,141.28c-0.08-1.8,1.4-1.76,2.44-2.09c1.02-0.03,1.99,0.14,1.56,1.46
		c-0.39,1.19-1.05,2.47-2.44,2.53C96.91,143.22,96.39,142.23,96.35,141.28z M135.55,145.6c0.27,0.66,0.7,1.28,1.12,1.86
		c1.14,1.56,2.78,2.8,1.18,5.25c-1.76,2.68-3.63,0.97-5.49,0.6c0.26-1.88-1.15-2.9-1.92-4.28c-1.3-2.29,0.55-3.29,1.87-4.4
		C133.74,143.44,134.82,143.83,135.55,145.6z M132.89,136.37c0.4-0.26,0.77-0.68,1.18-0.73c0.52-0.07,1.04,0.2,0.93,1.18
		c-0.29,0.17-0.74,0.64-1.11,0.57C133.51,137.31,133.22,136.73,132.89,136.37z M149.29,145.55c2.69,0.08,4.46,3.35,4.29,6.02
		c-0.18,2.68-3.23,3.39-5.25,4.66c-2.44-1.11-5-2.74-4.79-5.32C143.78,147.9,146.59,145.46,149.29,145.55z M149.26,135.84
		c1.02,0.02,2.12-0.02,2.52,1.36c-0.33,0.9-0.87,1.8-1.83,1.53c-0.72-0.22-1.53-0.94-1.85-1.65
		C147.76,136.32,148.49,135.82,149.26,135.84z M165.53,145.14c0.01-1.5,1.41-3.06,2.63-2.92c1.98,0.26,3.14,2.01,3.26,4.29
		c0.11,1.96-1.24,2.85-2.36,4.08C167.62,148.77,165.5,147.58,165.53,145.14z M162.44,157.3c-2.29-0.09-3.9-2.58-4.06-5.02
		c-0.15-2.25,1.95-3.26,3.75-4.32c2.01,0.94,3.55,2.5,3.88,4.76C166.39,155.38,164.55,157.39,162.44,157.3z M164.44,140.54
		c-3.18,2.28-3.53-1.54-5.13-2.87c2.44-0.73,4.96-1.6,6.61,0.92C166.42,139.35,165.15,140.03,164.44,140.54z M160.53,144.11
		c-1.15,1.84-2.19,4.71-4.08,4.54c-2.48-0.22-3.89-3.19-4.23-5.7c-0.29-2.18,1.52-4.1,3.57-3.8
		C158.1,139.49,159.32,141.89,160.53,144.11z M146.67,141.85c-0.31,2.81-3.48,4.1-5.58,6.55c-1.45-2.7-4.91-3.74-4.64-6.65
		c0.26-2.81,2.79-4.79,5.65-4.89C145,136.76,146.96,139.36,146.67,141.85z M132.31,153.36c2.29,4.23-1.28,6.09-3.36,8.04
		c-2.21,2.09-3.75-0.7-5.19-2.09c-2.15-2.09-2.56-4.22,0.16-6.39c2-1.6,3.6-4.68,6.31-0.93
		C130.7,152.64,131.59,152.92,132.31,153.36z M128.11,144.42c-1.9-0.03-3.36-2.17-3.84-4.01c-0.43-1.56,0.94-3.8,2.38-3.6
		c1.92,0.25,3.91,1.54,4.89,3.81C130.91,142.47,129.77,144.46,128.11,144.42z M125.21,147.43c-0.24,2.93-3.26,4.5-5.9,5.75
		c-1.93-1.44-4.7-2.92-4.2-5.24c0.56-2.65,2.58-5.98,5.57-5.74C122.69,142.38,125.39,145.3,125.21,147.43z M107.75,155.45
		c0.08-2.5,2.03-4.13,4.5-4.95c1.93,1.54,4.47,2.87,4.09,5.85c-0.33,2.5-2.64,4.63-4.71,4.34
		C109.62,160.43,107.69,157.89,107.75,155.45z M108.72,163.8c-0.06,1.96-1.92,4.69-3.82,4.37c-2.33-0.39-3.96-3.16-4.17-5.7
		c-0.18-2.35,1.89-3.66,3.93-4.62C106.87,159.24,108.78,161.25,108.72,163.8z M112.74,144.89c-2.65-0.05-4.33-2.96-4.49-5.41
		c-0.18-2.69,2.68-1.33,4.12-2.01c1.99,0.39,4.79,0.09,4.63,3.06C116.89,142.73,114.67,144.92,112.74,144.89z M109.21,148.13
		c0.24,2.58-2.95,2.56-4.02,4.97c-1.81-2.63-4.66-3.79-4.26-6.74c0.25-1.9,1.81-4.34,3.8-3.84
		C107.06,143.1,108.96,145.56,109.21,148.13z M77.73,187.84c2.28-0.32,2.48,2.55,3.71,3.98c-0.77,2.06-1.97,4.34-3.54,4.44
		c-1.8,0.12-3.21-2.28-3.51-4.2C74.01,189.71,75.98,188.08,77.73,187.84z M72.23,189.17c-2.63-0.6-4.66-3.44-5.11-6.29
		c-0.3-1.92,1.53-3.89,3.73-3.74c3.05,0.2,4.11,2.94,5.22,5.61C75.36,186.84,74.18,189.61,72.23,189.17z M78.29,181.24
		c-1.82,0.39-4.57-2.85-4.18-5.32c0.38-2.48,2.47-5.32,5.23-5.44c2.31-0.07,3.71,2.33,4.57,4.88
		C82.55,177.94,80.58,180.78,78.29,181.24z M82.06,168.27c-0.26-2.11,1.38-4.78,3.45-4.76c2.01,0.02,2.78,2.89,4.12,4.52
		c-0.84,2.04-1.61,4.58-3.49,4.64C83.98,172.77,82.31,170.26,82.06,168.27z M83.27,153.95c-0.11-0.9,0.81-1.54,1.83-1.6
		c1.35,0.27,2.2,1.12,2.24,2.61c0.03,0.98-0.52,2.02-1.47,1.98C84.29,156.85,83.45,155.43,83.27,153.95z M88.2,161.47
		c-0.23-1.9,0.87-3.44,2.81-4.26c1.66,1.52,4.47,2.29,4.61,4.77c0.1,1.79-1.84,4.05-3.68,4.08C89.69,166.09,88.48,163.7,88.2,161.47
		z M90.65,150.98c-1.36,0.27-3.15-0.32-2.91-2.26c0.32-2.6,2.47-4.13,4.5-4.9c1.41-0.54,2.14,1.46,2.7,2.96
		C94.38,149.14,92.79,150.57,90.65,150.98z M84.09,145.65c-0.65-0.13-1.21-1.05-0.8-1.72c1.21-1.97,3.14-1.84,5.85-1.69
		C87.37,144.36,86.32,146.13,84.09,145.65z M83.27,159.97c-0.65,2.04-1.62,4.47-3.84,4.69c-1.58,0.19-2.88-1.94-2.57-3.47
		c0.42-2.09,1.9-3.83,4.07-4.39C82.37,157.44,83.83,158.18,83.27,159.97z M80.12,150.28c-1.21-0.64-2.42-1.51-2.39-3.2
		c0.02-0.8,0.69-1.14,1.49-0.94c1.18,0.69,2.67,1.2,2.69,2.92C81.92,150.03,81.07,150.78,80.12,150.28z M78.18,154.38
		c-0.2,2.4-1.96,3.67-4,4.1c-2.55-0.51-3.26-2.33-3.1-4.49c0.15-2.3,1.67-3.86,3.71-3.72C76.79,150.39,78.36,152.13,78.18,154.38z
		 M65.69,178.79c-0.03-1.96-0.78-3.69,1.24-4.42c0.32-0.14,1.34,0.76,1.45,1.33C68.77,177.71,67.23,177.98,65.69,178.79z
		 M76.43,201.56c2.29,0.41,3.21,2.65,4.82,3.98c0.71,0.6,1.66,0.95,2.4,0.2c0.81-0.83,0.1-1.67-0.33-2.46
		c-0.92-1.68-3.31-2.47-2.84-4.98c0.49-2.7,3.06-3.42,7.27-1.87c-1.39-3.01-2.97-5.41-5.15-7.52c-2.68-2.55-3.27-5-0.04-8.23
		c3.21-3.2,4.62-1.77,6.59,1.04c0.64,0.92,1.96,1.27,3.01,1.89c-0.03,0.03-0.06,0.08-0.08,0.12c-0.85,0.49-1.98,0.7-1.76,2.21
		c1.15-0.22,1.59-1.05,1.79-2.09c0.05-0.07,0.09-0.14,0.15-0.2l-0.08-0.07c1.7-3.3-0.97-4.63-2.65-6.22
		c-1.67-1.58-2.18-3.83-0.25-4.49c3.23-1.12,4.4-3.49,5.76-6.27c0.71-1.5,2.36-3.54,4.17-1.5c1.88,2.14,5.04,4.51,2.19,7.97
		c-1.6,1.96-3.26,3.79-4.73,6.07c4.36-0.65,5.66-9.78,12.06-3.71c-0.04-3.01-3.48-4.66-0.38-7.45c2.56-2.31,4.34-1.22,7.23,0.54
		c-1-3.4-2.83-6.29,0.61-8.42c1.5-0.9,2.78-1.77,4.25-0.37c2.21,2.11,5.54,3.57,4.32,7.82c5.26-1.16,6.67-10.9,14.44-7.74
		c-0.2-1.46-3.04-3.49-0.2-5.53c1.16-0.83,2.35-1.28,3.24-0.01c1.68,2.34,4.68,4.28,2.77,8.05c-0.08,0.04-0.15,0.05-0.23,0.08
		c-0.16,0.05-0.33,0.09-0.51,0.14c-0.1,0.07-0.18,0.17-0.28,0.22c-0.43,0.2-0.86,0.42-1.15,0.76c-0.21,0.26-0.44,0.48-0.65,0.73
		c-7.39,8.52-15.31,16.46-23.21,24.4c-5.84,5.87-11.66,11.78-17.2,17.99c-0.24,0.25-0.5,0.51-0.74,0.78
		c-3.77,4.25-8.68,7.53-10.96,13.19c-1.49,1.17-2.9,1.63-4.27,1.56c-1.07-0.05-2.13-0.41-3.15-1.04c0.48,0.8,0.88,1.38,1.43,2.1
		c-0.93-0.51-1.9-2.26-3.46-4.26c0.01,0,0.03,0,0.04,0c-0.01,0-0.03,0.27-0.04,0.23c0.01-1.58,0.26-2.92-1.39-4.16
		c-5.61-4.15-9.19-10.25-13.43-15.72c-3.72-3.15-5.75-6.76-3.37-11.87c0.54-1.17,1.08-2.84,2.52-1.28
		C69.25,190.9,73.59,195.61,76.43,201.56z M65.35,213.86c4.66-3.4,8.77-2.21,10.98,2.36c1.3,2.67-1,3.43-2.1,4.96
		c-1.43,1.97-2.61,1.36-3.82-0.07c-3.6-4.27-7.18-8.59-10.73-12.89c-2.77-3.37,0.14-6.61,0.42-10.05
		C62.24,203.35,74.05,203.99,65.35,213.86z M77.39,235.19c-3.28,1.5-6.1,1.6-7.98-2.48c-0.93-2.07-0.39-3.74,0.95-4.96
		c1.68-1.56,2.85-0.03,3.77,1.34C75.41,231,77.11,232.68,77.39,235.19z M59.07,212.8c2.78,0.66,4,2.48,3.77,5.46
		c3.73-0.12,4.43,3.67,6.38,5.78c1.43,1.55-0.66,2.5-1.39,3.59c-1.1,1.65-2.1,0.72-2.93-0.34c-1.66-2.06-4.02-3.67-4.17-6.79
		C58.04,218.5,57.83,215.88,59.07,212.8z M218.29,206.19c-2.75,2.43-4.11,5.92-6.24,8.72c-3.04,4.06,0.62,2.55,2.13,3.35
		c-3.65,4.32-7.21,8.54-10.77,12.75c0.28,0.34,0.56,0.68,0.84,1.02c2.75-2.69,5.51-5.39,8.26-8.09c0.38-0.39,0.77-0.76,1.08-1.21
		c1.89-2.52,4.16-4.98,7.03-5.41c1.52-0.22,1.56,2.89,1.84,4.71c0.68,4.22-0.59,7.21-4.5,8.67c-0.59,2.16-1.67,3.81-3.77,4.56
		c0.85-1.85,2.18-3.28,3.71-4.51c0.02,0,0.03-0.03,0.04-0.03c0.02,0,0.02,0,0.03-0.02c0-0.02,0.02-0.02,0.02-0.03l-0.09,0.08
		c0.15-0.87,0.68-1.92,0.39-2.57c-0.52-1.16-1.46-0.49-2.06,0.17c-2.04,2.3-4.91,4.06-4.55,7.89c-0.02,0.02-0.02,0.02-0.02,0.03
		c-0.02,0-0.03,0.02-0.04,0.02c-0.01,0.02-0.02,0.33-0.03,0.37l-0.01,0.33c0.04,0,0.07,0,0.11,0c-0.01-1,0-0.37-0.01-0.4
		c0.02-0.01,0.03-0.18,0.04-0.18c0.82-0.32,1.63-0.72,2.45-1.04c-2.58,7.99-8.61,12.75-14.49,17.75c-4.28,3.6-8.88,8.19-14.44,5.76
		c-7.69-3.38-10.09,3.1-13.65,6.86c-5.52,5.85-10.63,11.03-19.48,8.96c-3-0.73-1.54-2.32-1.89-4c-9.87,9.25-19.41,6.22-28.77-0.51
		c-1.06-0.76-1.56,0.05-2.29,0.25c-4.5,1.22-8.99,2.4-13.46,3.76c-1.37,0.42-2.39-0.07-3.47-0.65
		c-11.43-6.33-21.16-14.84-29.94-24.79c-2.46-2.79-1.79-5.15-1.17-7.92c6.14,3.16,9.39,9.35,13.5,14.64
		c0.74,0.94,1.1,2.89,2.51,1.96c1.66-1.1-0.18-2.14-0.75-3.06c-2.29-3.74-5.36-6.94-8.16-10.25c-2.19-2.58-4.23-5.49-1.23-8.87
		c0,0,0,0,0,0.01c0,0,0.21-0.01,0.21-0.02c3.74-0.67,4.23,3.2,6.04,5.07c2.29,2.35,4.19,3.74,5.68-0.56
		c-3.54-0.75-14.77-11.78-14.43-14.83c0.37-3.35,2.62-5.36,6.04-5.36c0.01,3.37,4.37,5.87,0.51,10.73c4.52-3.12,6.54-6.6,9.01-9.61
		c0,0.01-0.01,0.01-0.01,0.02l0.04-0.04c0.45-0.25,0.98-0.42,1.32-0.79c12.43-12.77,24.98-25.42,37.17-38.43
		c5.71-6.12,12.48-11.27,16.45-19.08c2.16-0.15,4.38-1.29,6.65,0.73c-1.31-3.59-0.87-6.36,2.33-7.92c2.52-1.24,3.33,1.34,4.49,2.75
		c1.73,2.12,0.29,3.97-1.05,5.38c-7.98,8.28-16.31,16.22-24.03,24.76c-6.48,7.18-14.61,12.84-18.7,22.26
		c9.75-10.22,19.46-20.47,29.26-30.62c5.01-5.19,10.21-10.15,15.23-15.32c1.85-1.89,3.58-1.67,5.35-0.15
		c0.86-1.09,0.32-1.87-0.02-2.72c-0.93-2.26,0.64-3.46,1.91-4.67c1.85-1.77,2.78,0.15,3.82,1.27c1.15,1.24,2.34,2.28,4.12,1.82
		c-0.6-0.88-1.23-1.75-1.77-2.67c-0.85-1.45-2.76-2.67-1.11-4.76c0.83-1.07,2.27-2.09,3.11-1.08c1.37,1.66,3.51,3.38,2.66,6.06
		c-0.34,1.12-1.56,1.9-2.4,2.84c-0.28,1.02-1.63,1.99-0.81,2.99c0.85,1.04,1.82,0.19,2.66-0.63c3.66-3.59,3.68-3.57,6.95-0.15
		c0.83-1.65-0.29-2.79-0.78-3.98c-1.24-2.98,1.27-4.18,2.67-5.36c2.19-1.84,3.06,1.14,3.83,2.35c2.27,3.66,0.83,6.66-2.19,9.03
		c-0.6,0.49-1.98,0.17-1.46,1.63c0.43,1.24,1.45,0.71,2.19,0.37c6.5-3.01,6.5-3.03,9.62,4.49c0.07,0.17,0.1,0.39,0.23,0.49
		c4.28,3.69,6.78,7.65,0.66,13.13c4.29-0.61,5.19-4.01,7.6-5.37c1.33-0.76,2.16-3.88,4.03-1.39c1.34,1.8,3.56,3.98,0.9,6.8
		c-3.45,3.66-6.19,8.06-10.05,11.32c-0.46,0.39-0.63,1.17-1.58,3.01c6.19-3.59,10-8.01,14.01-12.85c1.94,3.06,4.36,5.22,0.36,8.89
		c-3.21,2.96-5.37,7.19-7.69,11.21c3.27-1.04,4.82-4.4,7.52-6.07c1.11-0.68,2.48-3.5,3.68-1.26
		C218.26,200.92,221.47,203.38,218.29,206.19z M174.73,144.36c-1.82,0.2-3.01-2.16-3.2-3.81c-0.31-2.81,2.61-1.5,3.68-2.58
		c1.72,0.15,3.6,0.17,3.42,2.53C178.45,142.76,176.43,144.17,174.73,144.36z M180.83,143.38c2.51,0.85,3.94,2.93,3.83,5.34
		c-0.12,2.34-1.73,5.08-3.95,5.14c-2.76,0.08-3.73-3.4-4.1-5.58C176.16,145.72,178.81,144.51,180.83,143.38z M185.39,141.76
		c1.86,0.59,3.39,0.71,3.55,2.52c0.04,0.43-0.93,1.39-1.3,1.31C186.06,145.28,185.71,143.82,185.39,141.76z M189.92,149.87
		c-0.01-0.22,0.88-0.77,1.22-0.65c2.96,0.96,2.74,3.68,3.43,6.2c-0.84,0-1.35,0.14-1.45-0.03C191.98,153.59,190,152.3,189.92,149.87
		z M199.34,167.16c-1.56-1.87-3.65-3.42-3.5-6.41c0.06-1.19,0.59-2.71,1.62-2.35c2.64,0.92,3.15,3.67,3.52,6.21
		C201.16,165.65,200.77,166.84,199.34,167.16z M203.22,167.5c2.92-0.24,1.78,3.69,3.99,4.17c-0.76,2.24-1.58,4.81-3.13,4.52
		c-2.41-0.44-2.66-3.64-3.39-5.76C200.14,168.79,201.9,167.59,203.22,167.5z M236.11,140.14c-6.26,5.01-12.35,10.24-19.52,13.92
		c-6.49,3.32-6.36,3.62-9.76-3.35c-2.02-4.13-3.55-8.65-6.12-12.34c-3.6-5.17-9.23-8.2-14.84-9.43
		c-14.36-3.15-29.23-0.31-43.68-3.37c-2.73-0.57-5.51,1.69-7.58,0.21c-8.2,0.05-15.5,1.31-22.73,3.3c-2.84,0.78-6.04,1.33-8.84,0.74
		c-9.18-1.91-16.26,3.57-23.7,7.34c-2.65,1.32-5.41,2.43-8.08,3.71c-8.09,3.83-11.22,10.34-11.96,19.52c-0.77,9.47-1.65,9.61-9.57,5
		c-5.89-3.43-12.07-6.04-17.06-11.53c-8.91-9.82-3.89-22.21,4.67-25.35c16.41-6.04,32.66-12.53,49.93-15.46
		c5.02-0.85,10.22-1.75,14.81-3.9c9.46-4.43,19.25-3.29,28.97-3.09c16.45,0.36,32.84,1.38,49.23,3.43
		c13.18,1.66,26.25,3.54,39.13,6.9c5.18,1.36,8.65,5.48,12.65,8.72c1.25,1,2.31,2.3,3.61,3.24
		C241.41,132.56,241.65,135.69,236.11,140.14z"/>
	<path d="M160.97,213.82c-14.53,11.04-23.61,27.6-36.85,39.87C137.78,241.79,148.99,227.41,160.97,213.82z"/>
	<path d="M133.38,226.78c5.95-6.46,11.93-12.92,17.74-19.5c2.38-2.7,4.66-5.6,4.83-9.96c-8.55,10.32-17.12,20.66-25.68,30.98
		C131.55,228.36,132.55,227.68,133.38,226.78z"/>
	<path d="M157.34,181.34c-6.44,4.17-10.88,10.36-15.26,16.63C148.97,194.28,152.8,187.45,157.34,181.34z"/>
	<path d="M142.08,197.97c-0.09,0.05-0.17,0.1-0.26,0.17c-0.01,0.05-0.03,0.1-0.03,0.15c0.04-0.02,0.08-0.05,0.12-0.08
		C141.96,198.14,142.02,198.06,142.08,197.97z"/>
	<path d="M153.09,236.01c0.54-0.71,1.26-1.36,0.66-2.4c-0.47-0.8-1.46-0.76-1.77-0.2c-2.79,5.1-8.37,7.96-9.93,14.03
		C146.14,244.04,149.83,240.28,153.09,236.01z"/>
	<path d="M142.06,247.44c-0.06,0.04-0.1,0.07-0.16,0.12c-0.04,0.06-0.08,0.12-0.12,0.17c0.07-0.02,0.13-0.05,0.2-0.07
		C142,247.56,142.03,247.5,142.06,247.44z"/>
	<path d="M117.92,243.93c4.54-4.61,9.16-9.15,12-15.27C125.23,233.15,120.75,237.81,117.92,243.93z"/>
	<path d="M130.19,228.39c0.03-0.03,0.04-0.07,0.08-0.1c-0.06,0-0.1,0.03-0.15,0.02c-0.06,0.14-0.14,0.22-0.19,0.36
		C130,228.58,130.1,228.48,130.19,228.39C130.2,228.39,130.2,228.39,130.19,228.39z"/>
	<path d="M141.78,198.3c-4.06,1.84-5.16,6.38-7.98,9.33C137.09,205.1,141.03,203.13,141.78,198.3z"/>
	<path d="M205.07,243.25c2.22-2.13,5.75-3.25,6.5-6.25c0,0-0.01,0-0.01,0c0.01,0,0.02-0.33,0.02-0.33c-0.01,0-0.03,0.03-0.05,0.03
		C207.31,236.73,207.14,240.97,205.07,243.25z"/>
	<path d="M107.95,217.18c-4.18,0.79-4.26,5.53-6.61,8.04c2.23-2.6,5.77-4.16,6.61-8.08c0,0,0.01-0.15,0.01-0.15h-0.01
		C107.95,217,107.95,217.18,107.95,217.18z"/>
	<path d="M196.13,240.94c1.25-1.51,3.98-1.85,3.84-4.93C197.7,236.83,196.22,238.19,196.13,240.94z"/>
	<path d="M115.54,226.32c-1.79,2.35-2.81,3.69-3.84,5.02C113.67,230.62,115.07,229.6,115.54,226.32z"/>
	<path d="M193.06,192.53c1.87-0.21,2.52-1.51,3.36-3.4C193.92,189.49,193.27,190.71,193.06,192.53z"/>
	<path d="M195.08,174.49c-2.15,0.71-2.98,2.25-3.38,4.08c0.19,0.63,0.48,0.75,0.74,0.31C193.29,177.5,195.3,176.84,195.08,174.49z"
		/>
	<path d="M118.92,224.77c-0.26-0.34-0.43-0.76-0.59-0.76c-0.31,0.03-0.69,0.22-0.87,0.46c-0.13,0.19,0.03,0.6,0.06,0.9
		C117.97,225.18,118.42,224.98,118.92,224.77z"/>
	<path d="M92.36,202.85c6.84-5.54,11.88-13.06,18.21-19.2c3.64-3.52,6.85-7.52,10.25-11.31c-0.33-0.32-0.66-0.66-1-0.99
		c-9.06,10.58-20.19,19.01-27.83,31.08c-1.69,0.49-2.86,1.31-2.25,3.55C91.31,205.47,91.91,204.23,92.36,202.85z"/>
	<path d="M72.54,205.44c2.55-0.49,2.89-2.41,3.77-3.76C74.61,202.19,72.69,202.48,72.54,205.44z"/>
	<path d="M67.41,196.82c-1.13,0.42-1.31,1.46-1.52,2.43C66.43,198.48,67.55,198.13,67.41,196.82z"/>
	<path d="M65.89,199.25c-0.03,0.05-0.08,0.07-0.11,0.14c0.01,0,0.02,0,0.02,0.03c0.02,0,0.03,0.02,0.04,0.03
		C65.86,199.38,65.88,199.32,65.89,199.25z"/>
</g>
<g>
	<path d="M255.27,165.43c1.36,0.05,3.16,0.09,5.4,0.14c2.23,0.05,4.48,0.07,6.74,0.07c2.35,0,4.61-0.02,6.78-0.07
		c2.16-0.05,3.69-0.07,4.59-0.07c7.15,0,12.48,1.29,15.99,3.88c3.5,2.59,5.26,5.93,5.26,10.02c0,1.69-0.35,3.47-1.06,5.33
		c-0.71,1.86-1.91,3.58-3.6,5.15c-1.69,1.58-4.01,2.86-6.95,3.85c-2.94,0.99-6.67,1.48-11.19,1.48h-7.48v-1.41h6.78
		c2.4,0,4.22-0.64,5.47-1.91c1.25-1.27,2.09-2.94,2.54-5.01c0.45-2.07,0.67-4.3,0.67-6.7c0-4.47-0.51-7.81-1.52-10.02
		c-1.01-2.21-2.76-3.32-5.26-3.32c-1.6,0-2.64,0.4-3.11,1.2c-0.47,0.8-0.71,2.42-0.71,4.87v34.3c0,1.93,0.2,3.36,0.6,4.31
		c0.4,0.94,1.17,1.55,2.29,1.83c1.13,0.28,2.78,0.42,4.94,0.42v1.62c-1.6-0.05-3.69-0.09-6.28-0.14c-2.59-0.05-5.34-0.07-8.26-0.07
		c-2.17,0-4.33,0.03-6.49,0.07c-2.16,0.05-4.21,0.09-6.14,0.14v-1.41c1.46-0.09,2.54-0.28,3.25-0.56s1.18-0.85,1.41-1.69
		c0.23-0.85,0.35-2.12,0.35-3.81v-35.01c0-1.74-0.12-3.02-0.35-3.85c-0.24-0.82-0.72-1.39-1.45-1.69c-0.73-0.31-1.8-0.48-3.21-0.53
		V165.43z"/>
	<path d="M319.29,177.99v30.84c0,1.98,0.29,3.32,0.88,4.02c0.59,0.71,1.61,1.06,3.07,1.06v1.48c-0.94-0.05-2.35-0.11-4.23-0.18
		c-1.88-0.07-3.81-0.11-5.79-0.11s-3.98,0.04-6,0.11c-2.02,0.07-3.55,0.13-4.59,0.18v-1.48c1.46,0,2.48-0.35,3.07-1.06
		c0.59-0.71,0.88-2.05,0.88-4.02v-22.38c0-2.12-0.28-3.68-0.85-4.69c-0.57-1.01-1.6-1.52-3.11-1.52v-1.48
		c1.5,0.14,2.96,0.21,4.38,0.21c2.35,0,4.55-0.08,6.6-0.25S317.55,178.32,319.29,177.99z M312.51,160.2c2.45,0,4.34,0.51,5.68,1.52
		c1.34,1.01,2.01,2.53,2.01,4.55c0,2.02-0.67,3.54-2.01,4.55s-3.24,1.52-5.68,1.52c-2.45,0-4.34-0.5-5.68-1.52
		c-1.34-1.01-2.01-2.53-2.01-4.55c0-2.02,0.67-3.54,2.01-4.55C308.17,160.71,310.07,160.2,312.51,160.2z"/>
	<path d="M342.37,160.2v48.63c0,1.98,0.29,3.32,0.88,4.02c0.59,0.71,1.61,1.06,3.07,1.06v1.48c-0.94-0.05-2.35-0.11-4.23-0.18
		c-1.88-0.07-3.81-0.11-5.79-0.11s-3.98,0.04-6,0.11c-2.02,0.07-3.55,0.13-4.59,0.18v-1.48c1.46,0,2.48-0.35,3.07-1.06
		c0.59-0.71,0.88-2.05,0.88-4.02v-40.16c0-2.12-0.28-3.68-0.85-4.69c-0.56-1.01-1.6-1.52-3.1-1.52v-1.48
		c1.5,0.14,2.96,0.21,4.38,0.21c2.35,0,4.55-0.08,6.6-0.25C338.73,160.78,340.63,160.53,342.37,160.2z"/>
	<path d="M379.14,178.49l-15.81,35.86h0.99c1.79,0,3.57-0.4,5.33-1.2c1.76-0.8,3.29-2.18,4.59-4.13s2.06-4.67,2.29-8.15h1.41
		c0,3.72,0.02,6.72,0.07,9c0.05,2.28,0.12,4.22,0.21,5.82c-2.16-0.09-4.42-0.17-6.78-0.21c-2.35-0.05-4.71-0.07-7.06-0.07
		c-2.45,0-4.96,0.04-7.55,0.11s-5.06,0.15-7.41,0.25l15.81-35.86h-1.41c-1.74,0-3.47,0.4-5.19,1.2c-1.72,0.8-3.18,2.18-4.38,4.13
		c-1.2,1.95-1.94,4.67-2.22,8.15h-1.41c0-3.76-0.02-6.78-0.07-9.04c-0.05-2.26-0.12-4.19-0.21-5.79c2.21,0.09,4.49,0.17,6.85,0.21
		s4.68,0.07,6.99,0.07c2.49,0,5.02-0.04,7.59-0.11C374.33,178.66,376.79,178.58,379.14,178.49z"/>
	<path d="M401.23,177.78c4.14,0,7.4,1.21,9.78,3.63c2.38,2.42,3.56,6.48,3.56,12.18h-22.09l-0.14-1.34h11.93
		c0.05-2.3-0.05-4.43-0.28-6.39c-0.24-1.95-0.61-3.52-1.13-4.69c-0.52-1.18-1.22-1.76-2.12-1.76c-1.27,0-2.31,1-3.11,3
		c-0.8,2-1.32,5.42-1.55,10.27l0.28,0.57c-0.05,0.47-0.07,0.94-0.07,1.41c0,0.47,0,0.96,0,1.48c0,3.29,0.41,5.86,1.24,7.69
		c0.82,1.83,1.86,3.11,3.11,3.81c1.25,0.71,2.51,1.06,3.78,1.06c0.66,0,1.45-0.09,2.37-0.28c0.92-0.19,1.92-0.62,3-1.3
		c1.08-0.68,2.14-1.73,3.18-3.14l1.2,0.42c-0.56,1.88-1.47,3.75-2.72,5.61c-1.25,1.86-2.86,3.39-4.83,4.59s-4.38,1.8-7.2,1.8
		c-3.01,0-5.75-0.61-8.22-1.83c-2.47-1.22-4.43-3.25-5.89-6.07c-1.46-2.82-2.19-6.61-2.19-11.36c0-4.52,0.8-8.2,2.4-11.05
		c1.6-2.85,3.78-4.94,6.53-6.28S397.85,177.78,401.23,177.78z"/>
</g>
<g>
	<path d="M303.27,234.1v1.41c-1.41,0.28-2.48,0.78-3.21,1.48c-0.73,0.71-1.21,1.8-1.45,3.28c-0.24,1.48-0.35,3.56-0.35,6.25v37.55
		c-0.71-0.09-1.47-0.14-2.29-0.14c-0.82,0-1.71,0.05-2.65,0.14l-31.27-34.16v20.33c0,3.15,0.13,5.57,0.39,7.23
		c0.26,1.67,0.89,2.87,1.91,3.6c1.01,0.73,2.62,1.26,4.83,1.59v1.41c-0.94-0.09-2.16-0.15-3.67-0.18c-1.51-0.02-2.92-0.04-4.23-0.04
		c-1.04,0-2.09,0.01-3.18,0.04c-1.08,0.02-1.98,0.08-2.68,0.18v-1.41c1.46-0.33,2.54-0.83,3.25-1.52c0.71-0.68,1.18-1.78,1.41-3.28
		c0.23-1.51,0.35-3.58,0.35-6.21v-30.07c0-1.74-0.12-3.02-0.35-3.85c-0.24-0.82-0.72-1.39-1.45-1.69c-0.73-0.31-1.8-0.48-3.21-0.53
		v-1.41c0.71,0.05,1.6,0.09,2.68,0.14c1.08,0.05,2.14,0.07,3.18,0.07c1.18,0,2.33-0.02,3.46-0.07c1.13-0.05,2.14-0.09,3.04-0.14
		l28.87,30.49v-16.66c0-3.15-0.13-5.57-0.39-7.24c-0.26-1.67-0.88-2.88-1.87-3.63c-0.99-0.75-2.61-1.27-4.87-1.55v-1.41
		c0.94,0.05,2.16,0.09,3.67,0.14c1.5,0.05,2.92,0.07,4.23,0.07c1.08,0,2.15-0.02,3.21-0.07C301.68,234.2,302.56,234.15,303.27,234.1
		z"/>
	<path d="M323.81,246.45c3.67,0,6.86,0.63,9.56,1.87c2.71,1.25,4.81,3.28,6.32,6.11c1.51,2.82,2.26,6.61,2.26,11.36
		c0,4.75-0.75,8.54-2.26,11.36c-1.51,2.82-3.61,4.85-6.32,6.07c-2.71,1.22-5.89,1.83-9.56,1.83c-3.62,0-6.8-0.61-9.53-1.83
		c-2.73-1.22-4.85-3.25-6.35-6.07c-1.51-2.82-2.26-6.61-2.26-11.36c0-4.75,0.75-8.54,2.26-11.36c1.5-2.82,3.62-4.86,6.35-6.11
		C317.01,247.08,320.18,246.45,323.81,246.45z M323.81,247.86c-1.41,0-2.59,1.41-3.53,4.24c-0.94,2.82-1.41,7.39-1.41,13.69
		c0,6.31,0.47,10.86,1.41,13.66c0.94,2.8,2.12,4.2,3.53,4.2c1.41,0,2.59-1.4,3.53-4.2c0.94-2.8,1.41-7.35,1.41-13.66
		c0-6.3-0.47-10.87-1.41-13.69S325.22,247.86,323.81,247.86z"/>
	<path d="M371.38,246.45c1.69,0,3.01,0.37,3.95,1.09c0.94,0.73,1.6,1.65,1.98,2.75c0.38,1.11,0.56,2.2,0.56,3.28
		c0,2.12-0.6,3.8-1.8,5.05c-1.2,1.25-2.76,1.87-4.69,1.87c-2.07,0-3.64-0.47-4.69-1.41c-1.06-0.94-1.59-2.16-1.59-3.67
		c0-1.6,0.34-2.92,1.02-3.95c0.68-1.03,1.54-1.91,2.58-2.61c-0.85,0-1.6,0.16-2.26,0.49c-0.56,0.24-1.11,0.57-1.62,0.99
		c-0.52,0.42-0.97,0.91-1.34,1.45c-0.38,0.54-0.67,1.14-0.88,1.8c-0.21,0.66-0.32,1.34-0.32,2.05v21.17c0,2.26,0.47,3.79,1.41,4.59
		c0.94,0.8,2.49,1.2,4.66,1.2v1.48c-1.08-0.05-2.7-0.11-4.83-0.18c-2.14-0.07-4.34-0.11-6.6-0.11c-2.12,0-4.26,0.04-6.42,0.11
		c-2.17,0.07-3.79,0.13-4.87,0.18v-1.48c1.46,0,2.48-0.35,3.07-1.06c0.59-0.71,0.88-2.05,0.88-4.02v-22.38
		c0-2.12-0.28-3.68-0.85-4.69c-0.56-1.01-1.6-1.52-3.11-1.52v-1.48c1.51,0.14,2.96,0.21,4.38,0.21c2.35,0,4.55-0.08,6.6-0.25
		c2.05-0.16,3.94-0.41,5.68-0.74v5.08c0.61-1.22,1.36-2.22,2.26-3c0.89-0.78,1.92-1.35,3.07-1.73
		C368.76,246.64,370.01,246.45,371.38,246.45z"/>
	<path d="M395.24,246.45c2.07,0,3.81,0.25,5.22,0.74c1.41,0.49,2.66,1.28,3.74,2.37l-0.78,0.78c-0.61-0.52-1.29-0.91-2.05-1.17
		c-0.75-0.26-1.46-0.39-2.12-0.39c-2.16,0-3.79,1.39-4.87,4.17c-1.08,2.78-1.62,7.03-1.62,12.78c0,4.14,0.21,7.35,0.64,9.63
		c0.42,2.28,1,3.86,1.73,4.73c0.73,0.87,1.52,1.31,2.37,1.31c1.32,0,2.49-0.48,3.53-1.45c1.03-0.96,1.55-2.18,1.55-3.63v3.46
		c-0.94,1.79-2.09,3.12-3.46,3.99c-1.37,0.87-3.08,1.31-5.15,1.31c-2.68,0-5.12-0.67-7.31-2.01s-3.92-3.45-5.19-6.32
		c-1.27-2.87-1.91-6.61-1.91-11.22c0-4.28,0.65-7.82,1.94-10.62c1.29-2.8,3.12-4.91,5.47-6.32S392.08,246.45,395.24,246.45z
		 M415.28,228.88v47.43c0,2.12,0.29,3.68,0.88,4.69c0.59,1.01,1.61,1.52,3.07,1.52V284c-1.46-0.14-2.92-0.21-4.38-0.21
		c-2.35,0-4.54,0.07-6.56,0.21c-2.02,0.14-3.93,0.4-5.72,0.78v-47.43c0-2.12-0.28-3.68-0.85-4.69c-0.56-1.01-1.6-1.52-3.11-1.52
		v-1.48c1.5,0.14,2.96,0.21,4.38,0.21c2.35,0,4.55-0.08,6.6-0.25S413.54,229.21,415.28,228.88z"/>
	<path d="M438.29,228.88v22.87c1.13-1.88,2.65-3.24,4.55-4.06c1.91-0.82,4.13-1.24,6.67-1.24c2.16,0,3.87,0.27,5.12,0.81
		c1.25,0.54,2.2,1.21,2.86,2.01c0.71,0.85,1.22,1.98,1.55,3.39s0.49,3.32,0.49,5.72v19.13c0,1.98,0.29,3.32,0.88,4.02
		c0.59,0.71,1.61,1.06,3.07,1.06v1.48c-0.94-0.05-2.36-0.11-4.27-0.18c-1.91-0.07-3.78-0.11-5.61-0.11c-1.98,0-3.91,0.04-5.79,0.11
		c-1.88,0.07-3.29,0.13-4.24,0.18v-1.48c1.22,0,2.07-0.35,2.54-1.06c0.47-0.71,0.71-2.05,0.71-4.02v-22.94
		c0-0.99-0.12-1.81-0.35-2.47c-0.24-0.66-0.6-1.15-1.09-1.48c-0.49-0.33-1.17-0.49-2.01-0.49c-0.85,0-1.66,0.21-2.44,0.64
		c-0.78,0.42-1.41,1.02-1.91,1.8c-0.49,0.78-0.74,1.66-0.74,2.65v22.3c0,1.98,0.25,3.32,0.74,4.02c0.49,0.71,1.33,1.06,2.51,1.06
		v1.48c-0.89-0.05-2.21-0.11-3.95-0.18c-1.74-0.07-3.53-0.11-5.37-0.11c-1.98,0-3.98,0.04-6,0.11c-2.02,0.07-3.55,0.13-4.59,0.18
		v-1.48c1.46,0,2.48-0.35,3.07-1.06c0.59-0.71,0.88-2.05,0.88-4.02v-40.16c0-2.12-0.28-3.68-0.85-4.69
		c-0.56-1.01-1.6-1.52-3.11-1.52v-1.48c1.5,0.14,2.96,0.21,4.38,0.21c2.35,0,4.55-0.08,6.6-0.25S436.55,229.21,438.29,228.88z"/>
	<path d="M484.59,246.45c4.14,0,7.4,1.21,9.78,3.63c2.38,2.42,3.57,6.48,3.57,12.18h-22.09l-0.14-1.34h11.93
		c0.05-2.3-0.05-4.43-0.28-6.39c-0.24-1.95-0.61-3.52-1.13-4.69c-0.52-1.18-1.22-1.76-2.12-1.76c-1.27,0-2.31,1-3.11,3
		c-0.8,2-1.32,5.42-1.55,10.27l0.28,0.57c-0.05,0.47-0.07,0.94-0.07,1.41c0,0.47,0,0.97,0,1.48c0,3.29,0.41,5.86,1.24,7.69
		c0.82,1.83,1.86,3.11,3.1,3.81c1.25,0.71,2.51,1.06,3.78,1.06c0.66,0,1.45-0.09,2.37-0.28c0.92-0.19,1.92-0.62,3-1.31
		c1.08-0.68,2.14-1.73,3.18-3.14l1.2,0.42c-0.56,1.88-1.47,3.75-2.72,5.61c-1.25,1.86-2.86,3.39-4.83,4.59
		c-1.98,1.2-4.38,1.8-7.2,1.8c-3.01,0-5.75-0.61-8.22-1.83c-2.47-1.22-4.44-3.25-5.89-6.07c-1.46-2.82-2.19-6.61-2.19-11.36
		c0-4.52,0.8-8.2,2.4-11.05c1.6-2.85,3.78-4.94,6.53-6.28C478.14,247.12,481.21,246.45,484.59,246.45z"/>
	<path d="M517.91,246.66v30.84c0,1.98,0.29,3.32,0.88,4.02c0.59,0.71,1.61,1.06,3.07,1.06v1.48c-0.94-0.05-2.35-0.11-4.24-0.18
		s-3.81-0.11-5.79-0.11c-1.98,0-3.98,0.04-6,0.11c-2.02,0.07-3.55,0.13-4.59,0.18v-1.48c1.46,0,2.48-0.35,3.07-1.06
		c0.59-0.71,0.88-2.05,0.88-4.02v-22.38c0-2.12-0.28-3.68-0.85-4.69c-0.56-1.01-1.6-1.52-3.11-1.52v-1.48
		c1.51,0.14,2.97,0.21,4.38,0.21c2.35,0,4.55-0.08,6.6-0.25C514.27,247.24,516.17,246.99,517.91,246.66z M511.13,228.88
		c2.45,0,4.34,0.51,5.68,1.52s2.01,2.53,2.01,4.55s-0.67,3.54-2.01,4.55c-1.34,1.01-3.24,1.52-5.68,1.52s-4.34-0.5-5.68-1.52
		c-1.34-1.01-2.01-2.53-2.01-4.55s0.67-3.54,2.01-4.55C506.79,229.38,508.68,228.88,511.13,228.88z"/>
	<path d="M540.92,246.45c2.07,0,3.81,0.25,5.22,0.74c1.41,0.49,2.66,1.28,3.74,2.37l-0.78,0.78c-0.61-0.52-1.29-0.91-2.05-1.17
		c-0.75-0.26-1.46-0.39-2.12-0.39c-2.17,0-3.79,1.39-4.87,4.17c-1.08,2.78-1.62,7.03-1.62,12.78c0,4.14,0.21,7.35,0.64,9.63
		c0.42,2.28,1,3.86,1.73,4.73c0.73,0.87,1.52,1.31,2.37,1.31c1.32,0,2.49-0.48,3.53-1.45c1.03-0.96,1.55-2.18,1.55-3.63v3.46
		c-0.94,1.79-2.09,3.12-3.46,3.99c-1.37,0.87-3.08,1.31-5.15,1.31c-2.68,0-5.12-0.67-7.31-2.01s-3.92-3.45-5.19-6.32
		c-1.27-2.87-1.91-6.61-1.91-11.22c0-4.28,0.65-7.82,1.94-10.62c1.29-2.8,3.12-4.91,5.47-6.32
		C535.01,247.16,537.76,246.45,540.92,246.45z M560.96,228.88v47.43c0,2.12,0.29,3.68,0.88,4.69c0.59,1.01,1.61,1.52,3.07,1.52V284
		c-1.46-0.14-2.92-0.21-4.38-0.21c-2.35,0-4.54,0.07-6.56,0.21c-2.02,0.14-3.93,0.4-5.72,0.78v-47.43c0-2.12-0.28-3.68-0.85-4.69
		c-0.56-1.01-1.6-1.52-3.11-1.52v-1.48c1.51,0.14,2.97,0.21,4.38,0.21c2.35,0,4.55-0.08,6.6-0.25S559.22,229.21,560.96,228.88z"/>
	<path d="M586.37,246.45c4.14,0,7.4,1.21,9.78,3.63c2.38,2.42,3.56,6.48,3.56,12.18h-22.09l-0.14-1.34h11.93
		c0.05-2.3-0.05-4.43-0.28-6.39c-0.24-1.95-0.61-3.52-1.13-4.69c-0.52-1.18-1.22-1.76-2.12-1.76c-1.27,0-2.31,1-3.11,3
		s-1.32,5.42-1.55,10.27l0.28,0.57c-0.05,0.47-0.07,0.94-0.07,1.41c0,0.47,0,0.97,0,1.48c0,3.29,0.41,5.86,1.24,7.69
		s1.86,3.11,3.11,3.81c1.25,0.71,2.51,1.06,3.78,1.06c0.66,0,1.45-0.09,2.36-0.28c0.92-0.19,1.92-0.62,3-1.31
		c1.08-0.68,2.14-1.73,3.18-3.14l1.2,0.42c-0.56,1.88-1.47,3.75-2.72,5.61c-1.25,1.86-2.86,3.39-4.83,4.59
		c-1.98,1.2-4.38,1.8-7.2,1.8c-3.01,0-5.75-0.61-8.22-1.83c-2.47-1.22-4.44-3.25-5.89-6.07c-1.46-2.82-2.19-6.61-2.19-11.36
		c0-4.52,0.8-8.2,2.4-11.05c1.6-2.85,3.78-4.94,6.53-6.28C579.91,247.12,582.99,246.45,586.37,246.45z"/>
</g>
<g>
	<path fill-rule="evenodd" clip-rule="evenodd" fill="#FFFFFF" d="M85.55,586.68c4.75-0.39,6.11,4.46,9.23,6.61
		c-4.36-0.25-7.46-2.39-9.14-6.68L85.55,586.68z"/>
	<path fill-rule="evenodd" clip-rule="evenodd" fill="#FFFFFF" d="M85.64,586.62c-2.62-1.09-4.02-2.98-3.68-6.4
		c3.21,1.13,4.04,3.39,3.59,6.46L85.64,586.62z"/>
	<path fill-rule="evenodd" clip-rule="evenodd" d="M154.62,586.63c-3.13,4.86-7.43,8.42-11.98,11.69c4.1-3.76,6.2-9.79,12.05-11.59
		L154.62,586.63z"/>
	<path fill-rule="evenodd" clip-rule="evenodd" d="M178.21,591.29c-2.82,3.33-5.63,6.63-8.43,9.94
		C171.27,596.67,174.1,593.35,178.21,591.29z"/>
	<path fill-rule="evenodd" clip-rule="evenodd" d="M132.63,583.61c-2.44,2.33-3.42,6.09-6.92,7.35c2.14-2.64,3.04-6.48,6.99-7.29
		L132.63,583.61z"/>
	<path fill-rule="evenodd" clip-rule="evenodd" d="M161.38,594.83c0.25-3.42,1.97-5.46,5.73-6.65c-1.23,3.62-3.49,5.12-5.79,6.57
		L161.38,594.83z"/>
	<path fill-rule="evenodd" clip-rule="evenodd" d="M161.32,594.76c-1.46,2.91-3.38,5.33-7.3,7.46c2.27-3.93,3.55-7.08,7.36-7.38
		L161.32,594.76z"/>
	<path fill-rule="evenodd" clip-rule="evenodd" d="M121.38,596.5c-0.2,1.96-0.75,2.93-2.16,3.39
		C118.6,597.79,119.56,597.09,121.38,596.5z"/>
	<path fill-rule="evenodd" clip-rule="evenodd" d="M129.4,602.91c0.06-1.42,1.09-1.88,1.81-2.62
		C131.67,601.99,130.54,602.36,129.4,602.91z"/>
	<path fill-rule="evenodd" clip-rule="evenodd" d="M118.24,583.09c-0.18,0.37-0.29,0.96-0.6,1.16c-0.49,0.33-0.86,0.02-0.63-0.63
		c0.15-0.42,0.44-0.77,0.66-1.17C117.84,582.64,118.01,582.82,118.24,583.09z"/>
	<path fill-rule="evenodd" clip-rule="evenodd" d="M111.88,591.13c-0.25-0.08-0.52-0.18-0.77-0.26c0.35-0.49,0.65-1.02,1.05-1.45
		c0.08-0.08,0.69,0.14,0.72,0.29C113.04,590.52,112.39,590.79,111.88,591.13z"/>
	<g>
		<path d="M129.73,553.1c-0.08,0.06-0.15,0.14-0.24,0.2c0.04-0.02,0.05-0.03,0.1-0.05C129.64,553.21,129.69,553.16,129.73,553.1z"/>
		<path d="M124.04,559.04c0-0.02,0-0.02,0.01-0.02c-0.02,0.03-0.05,0.06-0.08,0.09h0.01C124,559.08,124.02,559.05,124.04,559.04z"/>
		<path d="M85.6,542.95c0.01,0,0.02,0,0.02,0.03c0.02,0,0.03,0.02,0.04,0.03L85.6,542.95z"/>
		<path d="M217.88,576.43c0.02-0.01,0.02-0.03,0.04-0.03c-0.02,0-0.02,0-0.04,0C217.88,576.41,217.88,576.41,217.88,576.43z"/>
		<path d="M106.72,579.59c0.05-0.11,0.13-0.2,0.19-0.29c-0.04,0.03-0.08,0.05-0.11,0.08C106.78,579.45,106.74,579.51,106.72,579.59z
			"/>
		<path d="M217.8,576.49c-0.01,0-0.03,0.03-0.05,0.03c0.02,0,0.03,0,0.03,0C217.79,576.5,217.8,576.49,217.8,576.49z"/>
		<path d="M106.91,579.14c-0.08,0.12-0.19,0.23-0.27,0.37c0.06-0.03,0.11-0.09,0.16-0.14C106.83,579.29,106.89,579.23,106.91,579.14
			z"/>
		<path d="M123.84,559.25L123.84,559.25c0,0,0.01,0,0.02,0C123.86,559.25,123.85,559.25,123.84,559.25L123.84,559.25z"/>
		<path d="M95.29,544.99c-0.02-0.01-0.03-0.03-0.04-0.06c-0.02,0-0.02,0-0.03-0.02L95.29,544.99z"/>
		<path d="M109.49,528.74c0.01-0.03,0.02-0.06,0.02-0.09h-0.01c-0.02,0.03-0.05,0.08-0.08,0.11
			C109.44,528.75,109.47,528.74,109.49,528.74z"/>
		<path d="M95.1,545.04l0.05-0.01c0.03-0.03,0.05-0.06,0.08-0.11L95.1,545.04z"/>
		<path d="M109.46,528.86c0.05-0.06,0.08-0.12,0.13-0.18c-0.03,0.03-0.06,0.03-0.1,0.06C109.48,528.79,109.47,528.82,109.46,528.86z
			"/>
		<path d="M129.8,553.19c-0.08,0-0.13,0.06-0.21,0.06c-0.05,0.06-0.09,0.14-0.15,0.18C129.57,553.36,129.67,553.25,129.8,553.19
			c0.05-0.12,0.12-0.2,0.15-0.32c-0.07,0.08-0.15,0.17-0.22,0.23L129.8,553.19z"/>
		<path d="M217.88,576.38c-0.02,0.02-0.02,0.02-0.02,0.03c0.01,0,0.01-0.02,0.02-0.02V576.38z"/>
		<polygon points="217.79,576.52 217.79,576.52 217.79,576.52 		"/>
		<path d="M106.64,579.51c0,0.02,0,0.02,0,0.02c-0.01,0-0.02,0.01-0.02,0.03c0.02,0,0.06,0.03,0.09,0.03
			C106.72,579.59,106.64,579.53,106.64,579.51z"/>
		<path d="M273.56,461.16c-1.31-6.2-1.05-13.68-6.15-18.96c-1.69-1.74-2.54-4.7-3.12-7.28c-3.34-14.65-11.79-25.61-22.76-34.3
			c-7.05-5.6-13.2-12.52-22.61-14.91c-5.89-1.48-11.77-3.84-17.71-5.57c-9.64-2.81-19.67-3.19-29.42-5.06
			c-11-2.11-21.48-0.89-31.99,1.63c-7.52,1.8-15.35,1-22.76,4.72c-4.83,2.42-10.79,1.48-16.4,3.68
			c-8.53,3.36-16.84,6.81-24.71,11.65c-8.56,5.26-16.3,11.83-23.12,19.14c-11.29,12.12-19.58,26.77-23.19,43.42
			c-2.6,12.01-7.53,24.51-0.47,36.99c0.87,1.54,1.46,3.29,2.79,4.49c11.73,10.62,23.23,21.58,38.61,26.24
			c2.54,0.75,5.16,2.22,3.4,6.61c-4.13,10.25-3.5,21.31-3.81,32.15c-0.13,4.81,1.26,9.56,0.35,14.54c-0.49,2.65,0.15,5.84,2.27,8.02
			c4.86,5.01,10,9.71,15.28,14.23c7.16,6.17,15.41,10.5,23.02,15.91c4.88,3.48,10.31,6.35,16.3,1.6c1.68-1.34,4.02-0.91,5.89,0.25
			c1.98,1.23,4.18,1.51,6.29,2.2c7.35,2.39,14.52-1.31,21.77-0.49c10.45,1.59,18.79-2.19,25.17-11.01c2.09-2.88,5.13-4.33,8.29-4.49
			c11.6-0.52,19.17-7.96,26.41-16.34c3.49-4.05,5.59-9.27,9.94-12.61c2.98-2.3,3.7-5.95,4.26-9.82c0.66-4.59,0.22-9-0.18-13.54
			c-0.99-11.3-4.96-21.62-9.44-31.62c-1.8-4.04-2.11-5.67,2-7.57c14.54-6.74,28.31-14.77,38.25-28.45
			C271.48,479.11,275.45,470.2,273.56,461.16z M177.91,412.37c0.56-4.69,4.02-7.27,9.27-7.69c3.32-0.27,6.65-0.69,9.64-1.02
			c11,0.57,20.56,4.07,28.31,12.09c2.63,2.71,5.22,5.83,3.33,10.21c-1.73,4.04-6.77,7.03-11.22,5.61
			c-10.88-3.49-22.32-4.96-32.79-9.96C180.68,419.8,177.3,417.47,177.91,412.37z M223.89,549.12c-2.5,2.21-3.73,5.37-5.66,7.91
			c-2.76,3.68,0.56,2.31,1.93,3.04c-3.31,3.92-6.54,7.74-9.77,11.56c0.25,0.31,0.51,0.62,0.76,0.92c2.5-2.44,5-4.89,7.49-7.34
			c0.35-0.36,0.69-0.69,0.98-1.09c1.71-2.28,3.77-4.52,6.38-4.9c1.38-0.2,1.41,2.62,1.67,4.27c0.62,3.82-0.53,6.54-4.08,7.86
			c-0.53,1.96-1.52,3.45-3.42,4.13l-0.02,0.03l0,0c-2.34,7.25-7.81,11.59-13.14,16.13c-3.88,3.27-8.05,7.45-13.09,5.24
			c-6.97-3.07-9.15,2.82-12.38,6.23c-5,5.3-9.64,10.01-17.66,8.13c-2.72-0.66-1.4-2.1-1.71-3.62c-8.95,8.39-17.6,5.64-26.09-0.46
			c-0.96-0.69-1.41,0.05-2.07,0.23c-4.08,1.11-8.16,2.17-12.2,3.41c-1.24,0.38-2.17-0.06-3.15-0.59
			c-10.36-5.74-19.19-13.46-27.15-22.48c-2.23-2.53-1.63-4.67-1.06-7.18c-0.01,0-0.03-0.01-0.05-0.01c0-0.03,0-0.03,0-0.05
			c-2.16,2.11-4.15,1.88-5.64-0.79c-1.94-3.47-5.57-5.71-6.47-9.84c-0.29-1.36-0.93-3.22,0.69-4.13c1.58-0.88,2.46,0.8,2.85,1.88
			c1.86,5.06,7.9,6.97,8.56,12.87c0.02-0.03,0.05-0.03,0.08-0.06c-0.01,0.05-0.02,0.08-0.03,0.12c5.57,2.87,8.52,8.48,12.24,13.27
			c0.67,0.85,0.99,2.62,2.27,1.77c1.5-1-0.16-1.94-0.68-2.78c-2.07-3.39-4.68-6.29-7.22-9.3c-1.99-2.34-3.92-4.98-0.92-8.05l0,0
			l0.06-0.08c0,0-0.06,0.08-0.07,0.09c0-0.03,0-0.05-0.01-0.06c-2.98,1.36-5.54,1.45-7.23-2.25c-0.84-1.88-0.35-3.39,0.86-4.5
			c1.53-1.42,2.58-0.03,3.41,1.22c1.16,1.73,2.7,3.25,2.95,5.54c0.02-0.02,0.05-0.02,0.08-0.03c-0.02,0.01-0.04,0.06-0.06,0.08
			c3.39-0.62,3.75,2.9,5.39,4.59c2.07,2.13,3.75,3.39,5.1-0.51c-3.21-0.68-13.41-10.68-13.1-13.44c0.34-3.04,2.37-4.86,5.47-4.86
			c0-0.03-0.01-0.06-0.01-0.09c0.02,0.02,0.05,0.03,0.07,0.05c0.01-1.43,0.24-2.77-1.26-3.9c-5.09-3.76-8.33-9.36-12.18-14.32
			c-3.38-2.85-5.21-6.17-3.05-10.79c0.49-1.06,0.98-2.59,2.28-1.17c3.9,4.25,7.83,8.51,10.41,13.91c2.07,0.37,2.91,2.41,4.37,3.61
			c0.64,0.54,1.5,0.86,2.17,0.19c0.73-0.75,0.09-1.51-0.3-2.24c-0.83-1.53-3-2.24-2.57-4.52c0.45-2.45,2.77-3.1,6.59-1.7
			c-1.26-2.73-2.69-4.9-4.67-6.82c-2.43-2.31-2.97-4.53-0.04-7.46c2.91-2.9,4.19-1.6,5.97,0.94c0.58,0.83,1.78,1.16,2.73,1.71
			c0.01-0.01,0.01-0.01,0.02-0.03c1.54-2.99-0.88-4.19-2.4-5.64c-1.51-1.43-1.97-3.47-0.23-4.07c2.93-1.02,3.99-3.16,5.22-5.69
			c0.65-1.36,2.14-3.21,3.79-1.36c1.7,1.94,4.57,4.09,1.99,7.23c-1.45,1.77-2.95,3.44-4.29,5.5c3.95-0.59,5.13-8.87,10.94-3.36
			c-0.04-2.73-3.15-4.23-0.35-6.75c2.32-2.1,3.93-1.11,6.55,0.49c-0.9-3.08-2.57-5.7,0.55-7.63c1.36-0.82,2.52-1.6,3.85-0.34
			c2,1.91,5.03,3.24,3.92,7.09c4.77-1.05,6.04-9.88,13.09-7.01c-0.18-1.33-2.76-3.17-0.18-5.01c1.05-0.75,2.13-1.16,2.94-0.01
			c1.52,2.12,4.24,3.88,2.51,7.3c0.02-0.03,0.05-0.03,0.08-0.05c-0.02,0.03-0.03,0.05-0.05,0.08c1.96-0.14,3.97-1.17,6.03,0.66
			c-1.19-3.25-0.79-5.77,2.11-7.19c2.29-1.13,3.02,1.22,4.07,2.49c1.57,1.92,0.26,3.6-0.96,4.88c-7.24,7.51-14.79,14.71-21.79,22.45
			c-5.87,6.51-13.24,11.64-16.96,20.18c8.84-9.27,17.65-18.56,26.53-27.77c4.54-4.7,9.26-9.2,13.81-13.89
			c1.68-1.71,3.25-1.51,4.85-0.14c0.78-0.99,0.29-1.7-0.02-2.47c-0.84-2.05,0.58-3.14,1.73-4.24c1.68-1.6,2.52,0.14,3.46,1.16
			c1.04,1.13,2.12,2.07,3.74,1.65c-0.54-0.8-1.12-1.59-1.6-2.42c-0.77-1.31-2.5-2.42-1.01-4.32c0.76-0.97,2.06-1.9,2.82-0.98
			c1.24,1.5,3.18,3.06,2.41,5.5c-0.31,1.02-1.42,1.73-2.17,2.57c-0.14-0.11-0.29-0.23-0.45-0.35c0.15,0.12,0.31,0.25,0.45,0.35
			c-0.25,0.92-1.48,1.8-0.73,2.71c0.77,0.94,1.65,0.17,2.41-0.57c3.32-3.25,3.34-3.24,6.31-0.14c0.76-1.5-0.26-2.53-0.71-3.61
			c-1.13-2.7,1.16-3.79,2.42-4.86c1.99-1.67,2.78,1.03,3.47,2.13c2.06,3.31,0.76,6.04-1.98,8.19c-0.55,0.45-1.8,0.15-1.33,1.48
			c0.39,1.13,1.31,0.65,1.99,0.34c5.9-2.73,5.89-2.74,8.72,4.07c0.06,0.15,0.09,0.35,0.21,0.45c3.88,3.35,6.14,6.94,0.6,11.9
			c3.89-0.56,4.71-3.64,6.89-4.87c1.21-0.69,1.96-3.51,3.65-1.26c1.22,1.63,3.23,3.61,0.82,6.17c-3.13,3.32-5.61,7.31-9.11,10.27
			c-0.42,0.36-0.57,1.06-1.43,2.73c5.61-3.25,9.07-7.26,12.7-11.66c1.76,2.77,3.95,4.73,0.32,8.06c-2.91,2.68-4.87,6.52-6.98,10.16
			c2.96-0.94,4.37-3.99,6.81-5.5c1.01-0.62,2.25-3.18,3.34-1.14C223.86,544.34,226.76,546.58,223.89,549.12z M95.16,558.22
			c1.18,2.42-0.91,3.11-1.9,4.5c-1.29,1.79-2.37,1.23-3.46-0.06c-3.27-3.87-6.51-7.79-9.73-11.69c-2.51-3.05,0.13-6,0.39-9.11
			c1.94,4.69,12.65,5.27,4.76,14.22C89.43,552.99,93.15,554.07,95.16,558.22z M79.52,555.12c2.52,0.6,3.63,2.25,3.42,4.95
			c3.38-0.11,4.02,3.33,5.78,5.24c1.29,1.4-0.6,2.27-1.26,3.25c-1,1.5-1.9,0.65-2.66-0.31c-1.5-1.87-3.65-3.33-3.78-6.15l0,0
			C78.58,560.28,78.39,557.91,79.52,555.12z M92.39,510.82c1.93-0.45,2.32,1.79,3.22,3.18c-1.23,1.85-1.91,4.53-4.34,4.79
			c-1.81,0.18-3.47-1.5-3.32-3.45C88.14,512.83,90.26,511.35,92.39,510.82z M88.55,508.87c0-0.57,0.22-1.14,0.42-2.04
			c0.6,0.56,1.2,0.89,1.17,1.14c-0.07,0.55-0.32,1.26-0.72,1.59C88.92,509.96,88.55,509.36,88.55,508.87z M115.01,497.98
			c1.62,1.26,3.81,2.64,3.77,4.65c-0.04,1.92-1.85,4.36-3.91,4.14c-1.91-0.19-3.71-2.3-3.58-4.63
			C111.42,500.16,112.93,498.67,115.01,497.98z M113.31,490.27c-0.08-1.63,1.27-1.6,2.21-1.9c0.92-0.02,1.8,0.12,1.41,1.33
			c-0.35,1.08-0.95,2.24-2.21,2.3C113.82,492.03,113.35,491.13,113.31,490.27z M148.86,494.19c0.25,0.6,0.63,1.16,1.02,1.69
			c1.03,1.42,2.52,2.54,1.07,4.76c-1.6,2.43-3.29,0.88-4.98,0.55c0,0.04,0.02,0.04,0.02,0.08c-0.02-0.01-0.05-0.03-0.06-0.05
			c2.07,3.84-1.16,5.52-3.04,7.29c-2,1.9-3.4-0.63-4.7-1.9c-1.95-1.9-2.32-3.82,0.15-5.79c1.81-1.45,3.27-4.25,5.72-0.84
			c0.42,0.59,1.23,0.84,1.88,1.23c-0.02-0.02-0.02-0.04-0.02-0.06l0.08,0.11l-0.08-0.11c0.02,0.02,0.05,0.02,0.07,0.02
			c0.23-1.7-1.04-2.63-1.74-3.88c-1.18-2.07,0.5-2.98,1.7-3.99C147.22,492.23,148.2,492.58,148.86,494.19z M146.45,485.82
			c0.36-0.24,0.7-0.62,1.07-0.66c0.47-0.06,0.94,0.18,0.84,1.07c-0.26,0.15-0.67,0.58-1,0.52
			C147.01,486.66,146.75,486.14,146.45,485.82z M161.32,494.14c2.44,0.08,4.05,3.04,3.89,5.46c-0.16,2.43-2.93,3.08-4.76,4.22
			c-2.21-1-4.53-2.48-4.34-4.83C156.32,496.27,158.87,494.06,161.32,494.14z M161.29,485.34c0.93,0.02,1.92-0.02,2.28,1.23
			c-0.3,0.82-0.79,1.63-1.66,1.39c-0.65-0.2-1.39-0.85-1.68-1.5C159.93,485.77,160.59,485.32,161.29,485.34z M176.05,493.77
			c0.01-1.36,1.28-2.77,2.38-2.65c1.8,0.23,2.84,1.82,2.96,3.89c0.1,1.77-1.13,2.58-2.14,3.7
			C177.94,497.06,176.02,495.98,176.05,493.77z M176.48,500.65c0.35,2.41-1.33,4.23-3.24,4.15c-2.07-0.08-3.54-2.34-3.68-4.55
			c-0.14-2.04,1.77-2.96,3.4-3.92C174.78,497.18,176.19,498.6,176.48,500.65z M175.06,489.59c-2.88,2.07-3.2-1.39-4.65-2.61
			c2.21-0.66,4.49-1.45,5.99,0.83C176.86,488.51,175.7,489.13,175.06,489.59z M171.51,492.83c-1.04,1.66-1.99,4.27-3.7,4.12
			c-2.25-0.2-3.53-2.89-3.83-5.16c-0.26-1.97,1.38-3.72,3.24-3.45C169.31,488.65,170.41,490.82,171.51,492.83z M153.88,496.72
			c-1.32-2.45-4.46-3.39-4.21-6.03c0.23-2.54,2.53-4.35,5.12-4.43c2.64-0.08,4.41,2.27,4.15,4.53
			C158.66,493.33,155.79,494.5,153.88,496.72z M142.11,493.12c-1.72-0.03-3.04-1.97-3.48-3.64c-0.39-1.41,0.85-3.45,2.16-3.26
			c1.74,0.23,3.55,1.4,4.43,3.45C144.65,491.35,143.62,493.16,142.11,493.12z M139.48,495.85c-0.22,2.66-2.96,4.08-5.35,5.22
			c-1.75-1.3-4.26-2.65-3.81-4.75c0.51-2.41,2.34-5.43,5.05-5.2C137.2,491.27,139.65,493.91,139.48,495.85z M123.65,503.12
			c0.08-2.27,1.84-3.75,4.08-4.49c1.75,1.39,4.06,2.61,3.71,5.3c-0.3,2.27-2.39,4.19-4.27,3.93
			C125.35,507.63,123.6,505.33,123.65,503.12z M124.54,510.69c-0.05,1.77-1.74,4.25-3.46,3.96c-2.11-0.35-3.59-2.87-3.78-5.17
			c-0.16-2.13,1.71-3.31,3.56-4.19C122.86,506.55,124.59,508.37,124.54,510.69z M128.17,493.54c-2.4-0.05-3.92-2.68-4.07-4.9
			c-0.16-2.44,2.43-1.2,3.74-1.82c1.8,0.35,4.34,0.08,4.19,2.78C131.94,491.58,129.92,493.57,128.17,493.54z M124.98,496.48
			c0.22,2.33-2.68,2.32-3.65,4.51c-1.64-2.38-4.22-3.44-3.86-6.11c0.22-1.72,1.64-3.94,3.45-3.48
			C123.03,491.92,124.75,494.15,124.98,496.48z M96.94,526.5c-1.65,0.36-4.15-2.59-3.79-4.83c0.35-2.25,2.24-4.83,4.74-4.93
			c2.1-0.06,3.37,2.11,4.14,4.42C100.8,523.51,99.02,526.09,96.94,526.5z M99.79,536.09c-0.69,1.87-1.79,3.93-3.21,4.02
			c-1.63,0.11-2.91-2.07-3.18-3.81c-0.34-2.13,1.45-3.61,3.03-3.82C98.5,532.19,98.68,534.8,99.79,536.09z M100.36,514.74
			c-0.24-1.91,1.25-4.33,3.13-4.32c1.82,0.02,2.52,2.62,3.73,4.1c-0.76,1.85-1.46,4.15-3.16,4.21
			C102.1,518.83,100.58,516.54,100.36,514.74z M101.46,501.76c-0.1-0.82,0.73-1.4,1.66-1.45c1.23,0.25,2,1.02,2.04,2.37
			c0.02,0.89-0.47,1.83-1.33,1.8C102.38,504.39,101.62,503.1,101.46,501.76z M105.93,508.57c-0.21-1.73,0.79-3.12,2.54-3.86
			c1.5,1.38,4.05,2.07,4.18,4.32c0.09,1.62-1.67,3.67-3.34,3.7C107.28,512.77,106.18,510.59,105.93,508.57z M108.15,499.06
			c-1.23,0.25-2.85-0.29-2.64-2.05c0.29-2.36,2.24-3.75,4.08-4.44c1.28-0.49,1.94,1.33,2.45,2.68
			C111.53,497.39,110.09,498.69,108.15,499.06z M102.2,494.23c-0.59-0.12-1.09-0.95-0.72-1.56c1.09-1.79,2.84-1.67,5.3-1.53
			C105.17,493.06,104.22,494.67,102.2,494.23z M101.46,507.22c-0.59,1.85-1.47,4.06-3.48,4.26c-1.43,0.17-2.61-1.76-2.33-3.15
			c0.39-1.9,1.72-3.48,3.69-3.98C100.64,504.92,101.97,505.59,101.46,507.22z M98.6,498.43c-1.09-0.58-2.2-1.37-2.17-2.9
			c0.02-0.72,0.62-1.03,1.35-0.86c1.07,0.63,2.42,1.09,2.44,2.64C100.23,498.21,99.46,498.88,98.6,498.43z M96.84,502.14
			c-0.18,2.17-1.78,3.33-3.63,3.72c-2.31-0.46-2.96-2.11-2.81-4.07c0.14-2.09,1.51-3.5,3.36-3.38
			C95.58,498.53,97.01,500.11,96.84,502.14z M90.2,524.59c2.77,0.18,3.72,2.67,4.73,5.09c-0.65,1.9-1.72,4.41-3.48,4.01
			c-2.38-0.54-4.22-3.12-4.63-5.71C86.55,526.24,88.21,524.45,90.2,524.59z M85.51,524.28c-0.02-1.77-0.71-3.34,1.13-4.01
			c0.29-0.12,1.21,0.69,1.31,1.2C88.31,523.3,86.91,523.54,85.51,524.28z M184.39,493.06c-1.65,0.19-2.73-1.96-2.9-3.45
			c-0.28-2.55,2.37-1.36,3.34-2.34c1.56,0.14,3.27,0.15,3.1,2.29C187.76,491.61,185.93,492.89,184.39,493.06z M189.92,492.17
			c2.27,0.77,3.58,2.65,3.47,4.84c-0.11,2.12-1.57,4.6-3.58,4.66c-2.5,0.08-3.38-3.08-3.72-5.06
			C185.68,494.3,188.09,493.2,189.92,492.17z M194.05,490.7c1.69,0.53,3.08,0.65,3.22,2.28c0.04,0.38-0.84,1.26-1.18,1.19
			C194.66,493.9,194.34,492.57,194.05,490.7z M198.16,498.06c-0.01-0.2,0.79-0.69,1.1-0.59c2.68,0.87,2.48,3.34,3.11,5.62
			c-0.76,0-1.23,0.12-1.31-0.02C200.03,501.43,198.23,500.26,198.16,498.06z M206.71,513.74c-1.41-1.7-3.31-3.1-3.17-5.81
			c0.05-1.08,0.53-2.46,1.47-2.13c2.39,0.83,2.85,3.33,3.19,5.63C208.35,512.37,208,513.45,206.71,513.74z M210.22,514.05
			c2.64-0.22,1.61,3.34,3.62,3.78c-0.69,2.04-1.43,4.36-2.84,4.1c-2.18-0.4-2.41-3.3-3.08-5.23
			C207.42,515.22,209.02,514.12,210.22,514.05z M240.04,489.23c-5.67,4.54-11.2,9.29-17.7,12.62c-5.88,3.01-5.77,3.28-8.85-3.04
			c-1.83-3.75-3.22-7.85-5.55-11.19c-3.26-4.69-8.37-7.43-13.46-8.55c-13.02-2.86-26.5-0.29-39.61-3.05c-2.47-0.52-5,1.53-6.88,0.19
			c-7.43,0.05-14.05,1.19-20.61,2.99c-2.57,0.71-5.47,1.2-8.02,0.67c-8.33-1.73-14.75,3.24-21.49,6.65c-2.41,1.2-4.9,2.21-7.32,3.36
			c-7.34,3.47-10.18,9.37-10.85,17.7c-0.7,8.59-1.5,8.71-8.68,4.53c-5.34-3.11-10.95-5.47-15.47-10.45
			c-8.08-8.9-3.52-20.14,4.23-22.99c14.88-5.48,29.62-11.36,45.27-14.01c4.55-0.77,9.27-1.59,13.43-3.54
			c8.58-4.02,17.45-2.98,26.27-2.8c14.92,0.32,29.78,1.25,44.64,3.12c11.95,1.5,23.8,3.21,35.48,6.26
			c4.69,1.23,7.84,4.97,11.47,7.91c1.13,0.91,2.1,2.08,3.28,2.94C244.85,482.36,245.06,485.2,240.04,489.23z"/>
		<path fill="#FFFFFF" d="M90.39,580.53c0.02,0,0.04,0.01,0.05,0.01c0.01-0.05,0.02-0.08,0.03-0.12L90.39,580.53z"/>
		<path fill="#FFFFFF" d="M123.97,559.11c0.02-0.01,0.02-0.01,0.03-0.03c0.02,0,0.02-0.03,0.03-0.05
			C124.02,559.05,124,559.08,123.97,559.11z"/>
		<polygon fill="#FFFFFF" points="123.84,559.25 123.84,559.25 123.84,559.25 		"/>
		<path fill="#FFFFFF" d="M96.14,575.47L96.14,575.47c0.02-0.02,0.04-0.06,0.06-0.08L96.14,575.47z"/>
		<path fill="#FFFFFF" d="M109.52,528.62c-0.01,0.02-0.01,0.02-0.02,0.03h0.01C109.51,528.65,109.52,528.63,109.52,528.62z"/>
		<path fill="#FFFFFF" d="M156.75,509.56c-0.09,0.06-0.16,0.15-0.25,0.2c0.24-0.11,0.49-0.2,0.72-0.33
			C157.07,509.48,156.91,509.51,156.75,509.56z"/>
		<path fill="#FFFFFF" d="M90.39,580.48c0,0.01,0,0.01,0,0.05l0.08-0.11C90.44,580.45,90.42,580.45,90.39,580.48z"/>
		<path fill="#FFFFFF" d="M145.92,501.22c0.02,0.02,0.04,0.03,0.06,0.05l-0.08-0.11C145.91,501.18,145.91,501.2,145.92,501.22z"/>
		<path fill="#FFFFFF" d="M145.98,501.26c0-0.05-0.02-0.05-0.02-0.08c-0.02,0-0.05-0.01-0.07-0.02L145.98,501.26z"/>
		<path fill="#FFFFFF" d="M96.13,575.49c0.01-0.02,0.07-0.09,0.07-0.09c-0.02,0.01-0.05,0.01-0.08,0.03
			C96.13,575.44,96.13,575.45,96.13,575.49z"/>
		<path d="M217.86,576.41c-0.01,0.01-0.02,0.01-0.02,0.03l0.01,0.02c0.02,0,0.02-0.03,0.04-0.03c0-0.01,0-0.01,0-0.03
			C217.87,576.4,217.87,576.41,217.86,576.41z"/>
		<path d="M223.53,571.4L223.53,571.4c-2.73,0.58-3.97,3.05-5.64,4.98v0.02c0.02,0,0.02,0,0.04,0c0.13-0.15,0.27-0.29,0.4-0.43
			c0.55-0.48,1.14-0.65,1.82-0.45l0,0l0,0l0.02-0.03C220.94,573.81,222.14,572.51,223.53,571.4z"/>
		<path d="M223.6,571.32l-0.08,0.08h0.01C223.56,571.37,223.58,571.34,223.6,571.32z"/>
		<path d="M223.52,571.4c0.14-0.79,0.62-1.74,0.35-2.33c-0.47-1.05-1.33-0.45-1.87,0.16c-1.85,2.08-4.45,3.68-4.12,7.15
			C219.56,574.45,220.8,571.99,223.52,571.4z"/>
		<path d="M217.86,576.41c-0.02,0-0.03,0.01-0.04,0.01l0.02,0.02C217.84,576.43,217.85,576.43,217.86,576.41z"/>
		<path d="M217.89,576.52c-0.01-0.03,0-0.06-0.01-0.09c-0.02,0-0.02,0.03-0.04,0.03L217.89,576.52z"/>
		<path d="M218.32,575.96c-0.13,0.14-0.27,0.28-0.4,0.43c0.74-0.29,1.48-0.59,2.22-0.88l0,0
			C219.46,575.32,218.87,575.49,218.32,575.96z"/>
		<path fill="#FFFFFF" d="M223.56,571.37c0.02,0,0.02,0,0.02-0.02c0-0.02,0.02-0.02,0.02-0.03
			C223.59,571.34,223.58,571.35,223.56,571.37z"/>
		<path fill="#FFFFFF" d="M223.56,571.37c0.02-0.02,0.02-0.03,0.04-0.05c-0.02,0.01-0.04,0.05-0.08,0.08
			C223.54,571.4,223.55,571.37,223.56,571.37z"/>
		<path d="M157.45,509.39c0.02-0.03,0.03-0.05,0.05-0.08c-0.02,0.03-0.05,0.05-0.07,0.08C157.44,509.39,157.45,509.39,157.45,509.39
			z"/>
		<path d="M157.5,509.31c-0.03,0.02-0.05,0.02-0.08,0.05c-0.01,0-0.02,0.02-0.02,0.03L157.5,509.31z"/>
		<path d="M124.34,544.31c-5.59,5.94-11.61,11.42-16.68,17.88c0.01,0,0.02,0,0.02-0.02c0,0.02-0.01,0.02-0.01,0.02s0.01,0,0.02-0.02
			l-0.02,0.02c-0.02,0.03-0.04,0.05-0.06,0.06c0.42-0.23,0.9-0.38,1.22-0.72c11.27-11.58,22.65-23.05,33.7-34.84
			c5.18-5.55,11.32-10.22,14.92-17.3c-0.01,0-0.02,0-0.02,0C146.92,521.58,135.34,532.66,124.34,544.31z"/>
		<path d="M157.4,509.39c0.01-0.02,0.02-0.03,0.02-0.03c-0.07,0.03-0.14,0.05-0.21,0.08C157.28,509.42,157.34,509.41,157.4,509.39z"
			/>
		<path d="M155.46,510.45c-0.19,0.23-0.4,0.43-0.59,0.66c0.55-0.43,1.06-0.94,1.63-1.36C156.1,509.94,155.72,510.15,155.46,510.45z"
			/>
		<path d="M133.82,533.24c-5.3,5.32-10.58,10.68-15.59,16.31C123.64,544.36,128.69,538.78,133.82,533.24z"/>
		<path d="M157.43,509.39c0.02-0.03,0.05-0.05,0.07-0.08l-0.1,0.08C157.41,509.39,157.42,509.39,157.43,509.39z"/>
		<path d="M107.62,562.23c0.02,0,0.03-0.02,0.05-0.03c5.07-6.46,11.09-11.95,16.68-17.88c11-11.66,22.58-22.73,33.09-34.92
			c-0.01,0-0.02,0-0.03,0c-0.06,0.01-0.12,0.03-0.18,0.04c-0.23,0.13-0.48,0.22-0.72,0.33c-0.58,0.42-1.09,0.92-1.63,1.36
			c-6.7,7.73-13.88,14.92-21.04,22.13c-5.13,5.54-10.18,11.12-15.59,16.31c-0.22,0.23-0.45,0.46-0.67,0.71
			C114.14,554.12,109.68,557.09,107.62,562.23z"/>
		<path d="M107.69,562.18c-0.01,0.02-0.02,0.02-0.02,0.02l0,0L107.69,562.18z"/>
		<path d="M138.5,592.2c12.39-10.79,22.55-23.84,33.41-36.15C158.73,566.05,150.5,581.07,138.5,592.2z"/>
		<path d="M162.98,550.11c2.16-2.45,4.22-5.07,4.38-9.03c-7.76,9.36-15.53,18.73-23.29,28.09c1.16,0.06,2.07-0.55,2.82-1.37
			C152.29,561.93,157.71,556.08,162.98,550.11z"/>
		<path d="M144.07,569.16c-0.05,0-0.09,0.03-0.14,0.02c0,0,0.06,0.06,0.07,0.08C144.02,569.23,144.04,569.19,144.07,569.16z"/>
		<path d="M168.62,526.6c-5.84,3.78-9.87,9.39-13.84,15.08C161.03,538.33,164.5,532.13,168.62,526.6z"/>
		<path d="M154.78,541.67c-0.08,0.05-0.15,0.09-0.24,0.15l0.08,0.06C154.67,541.83,154.72,541.75,154.78,541.67z"/>
		<path d="M163.77,573.81c-2.53,4.63-7.59,7.21-9,12.72c3.7-3.08,7.05-6.49,10.01-10.36c0.49-0.65,1.14-1.23,0.6-2.17
			C164.95,573.26,164.04,573.3,163.77,573.81z"/>
		<path d="M154.69,586.72c0.02-0.09,0.05-0.14,0.08-0.2c-0.05,0.03-0.09,0.06-0.15,0.11L154.69,586.72z"/>
		<path d="M102.39,565.16c0.07-0.04,0.1-0.11,0.16-0.15c-0.12-0.03-0.25-0.08-0.36-0.14C102.26,564.96,102.3,565.06,102.39,565.16z"
			/>
		<path d="M98.98,561.16c0,0.03,0.01,0.06,0.01,0.09c0.02,0,0.04,0,0.06,0C99.02,561.21,99,561.19,98.98,561.16z"/>
		<path d="M99.05,561.21c-0.02-0.01-0.05-0.03-0.07-0.05l0.07,0.09C99.05,561.24,99.05,561.22,99.05,561.21z"/>
		<path d="M99.44,570.98c4.1-2.84,5.94-6,8.17-8.73l-0.02,0.03c0-0.03,0.01-0.03,0.02-0.05c-2.68,2.16-3.92,3.11-5.06,2.76
			c-0.06,0.05-0.09,0.11-0.16,0.15c-0.08-0.09-0.13-0.2-0.2-0.29c-0.84-0.46-1.72-1.63-3.14-3.61c-0.02,0-0.04,0-0.06,0
			C99,564.31,102.94,566.57,99.44,570.98z"/>
		<path d="M103.75,563.64c-0.97-0.05-1.93-0.37-2.85-0.94c0.43,0.73,0.79,1.51,1.29,2.16c0.12,0.06,0.24,0.11,0.36,0.14
			C103.13,564.65,103.49,564.17,103.75,563.64z"/>
		<path d="M99.09,561.25c-0.01,0-0.03-0.01-0.04-0.05c0,0.02,0,0.03,0,0.05C99.06,561.25,99.08,561.25,99.09,561.25z"/>
		<path d="M99.05,561.25l-0.07-0.09C99,561.19,99.02,561.21,99.05,561.25L99.05,561.25z"/>
		<path d="M103.75,563.64c-0.25,0.52-0.62,1-1.19,1.36c1.15,0.36,2.39-0.6,5.06-2.76v-0.02
			C106.27,563.29,104.99,563.71,103.75,563.64z"/>
		<path d="M107.68,562.2c0,0,0.01,0,0.01-0.02c-0.01,0.02-0.02,0.02-0.02,0.02c0,0-0.01,0-0.01,0.02
			C107.66,562.2,107.68,562.2,107.68,562.2z"/>
		<path d="M107.62,562.24c-0.01,0.01-0.02,0.01-0.02,0.05c0.02-0.03,0.03-0.05,0.05-0.08C107.64,562.23,107.63,562.23,107.62,562.24
			z"/>
		<path d="M107.6,562.29l0.02-0.03c0.02-0.01,0.05-0.03,0.06-0.06L107.6,562.29z"/>
		<path d="M107.68,562.2c0,0-0.02,0-0.02,0.02c-0.02,0.03-0.04,0.05-0.05,0.08L107.68,562.2L107.68,562.2z"/>
		<path d="M107.66,562.2c-0.02,0.02-0.03,0.03-0.05,0.03v0.02c0.02-0.02,0.02-0.02,0.04-0.03
			C107.65,562.2,107.66,562.2,107.66,562.2z"/>
		<path d="M132.88,583.35c4.12-4.18,8.3-8.29,10.88-13.84C139.51,573.57,135.44,577.8,132.88,583.35z"/>
		<path d="M132.7,583.67c0.05-0.12,0.12-0.22,0.18-0.32c-0.08,0.08-0.16,0.17-0.25,0.26L132.7,583.67z"/>
		<path d="M144,569.26L144,569.26l-0.07-0.08c-0.05,0.12-0.13,0.2-0.18,0.32C143.83,569.43,143.92,569.33,144,569.26
			C144.01,569.26,144.01,569.26,144,569.26z"/>
		<path d="M144,569.26c-0.01-0.02-0.07-0.08-0.07-0.08L144,569.26L144,569.26z"/>
		<path d="M154.54,541.83c-0.01,0.05-0.02,0.09-0.03,0.14c0.04-0.02,0.07-0.05,0.11-0.08L154.54,541.83z"/>
		<path d="M154.51,541.97c-3.69,1.67-4.68,5.78-7.24,8.46C150.26,548.13,153.83,546.35,154.51,541.97z"/>
		<path d="M217.84,576.44c-0.01,0.02-0.01,0.02-0.02,0.02c-0.01,0-0.02,0.03-0.02,0.03c0,0-0.01,0.01-0.01,0.03l0,0
			c0.02-0.02,0.04-0.03,0.05-0.06L217.84,576.44z"/>
		<path d="M217.75,576.52c-0.41,0.45-0.82,0.89-1.24,1.33c0.43-0.43,0.85-0.88,1.28-1.33l0,0
			C217.79,576.52,217.77,576.52,217.75,576.52z"/>
		<path d="M217.75,576.52c-3.82,0.03-3.98,3.87-5.86,5.94c2.01-1.93,5.21-2.67,5.9-5.94c-0.43,0.45-0.85,0.89-1.28,1.33
			C216.93,577.41,217.34,576.96,217.75,576.52z"/>
		<path d="M217.84,576.44l-0.02-0.02c-0.01,0.02-0.02,0.03-0.02,0.06c0.01,0,0.02-0.03,0.02-0.03
			C217.83,576.46,217.83,576.46,217.84,576.44z"/>
		<path d="M217.79,576.52c0.04,0,0.06,0,0.1,0l-0.05-0.06C217.83,576.49,217.81,576.5,217.79,576.52z"/>
		<path d="M123.81,559.28c-0.84,0.92-1.7,1.79-2.5,2.75c0.79-0.96,1.68-1.83,2.52-2.78h0.01
			C123.83,559.25,123.83,559.27,123.81,559.28z"/>
		<path d="M123.92,559.17L123.92,559.17c-0.03,0.01-0.05,0.05-0.08,0.08c0.01,0,0.02,0,0.02,0v-0.02
			C123.87,559.22,123.9,559.19,123.92,559.17z"/>
		<path d="M123.86,559.24v0.02c0.03-0.02,0.06-0.03,0.1-0.03l-0.04-0.05C123.9,559.19,123.87,559.22,123.86,559.24z"/>
		<path d="M123.81,559.28c0.02-0.01,0.02-0.03,0.03-0.03l0,0c-3.8,0.71-3.87,4.93-6.01,7.21c2.02-2.36,5.24-3.65,6-7.21
			c-0.84,0.94-1.73,1.82-2.52,2.78C122.11,561.07,122.97,560.21,123.81,559.28z"/>
		<path d="M123.91,559.17l-0.04-0.03c-0.01,0.03-0.02,0.06-0.03,0.11l0,0C123.87,559.22,123.89,559.19,123.91,559.17z"/>
		<path d="M106.81,579.37c-0.05,0.05-0.1,0.11-0.16,0.14l0,0c0,0.02,0.08,0.08,0.08,0.08C106.74,579.51,106.78,579.45,106.81,579.37
			z"/>
		<path d="M106.91,579.29c0.36-0.62,0.75-1.19,1.19-1.73c-0.42,0.49-0.81,1.03-1.19,1.57c-0.02,0.09-0.08,0.15-0.11,0.23
			C106.84,579.34,106.88,579.32,106.91,579.29z"/>
		<polygon points="106.64,579.51 106.64,579.51 106.64,579.51 		"/>
		<path d="M109.89,575.58c0.82-0.85,1.64-1.7,2.42-2.59C111.53,573.88,110.71,574.73,109.89,575.58c-0.63,0.65-1.23,1.3-1.79,1.99
			c-0.44,0.54-0.83,1.11-1.19,1.73c2.81-2,4.96-4.66,6.75-7.66c-2.56,2.21-5.57,4.01-6.75,7.51c0.38-0.54,0.76-1.08,1.19-1.57
			C108.66,576.87,109.27,576.23,109.89,575.58z"/>
		<path d="M203.79,580.63c1.13-1.37,3.61-1.68,3.48-4.47C205.22,576.9,203.88,578.14,203.79,580.63z"/>
		<path d="M129.49,553.3c-0.46,0.32-0.89,0.66-1.3,1.05c0.38-0.34,0.81-0.63,1.25-0.91c0.05-0.05,0.09-0.12,0.15-0.18
			C129.55,553.27,129.53,553.28,129.49,553.3z"/>
		<path d="M129.8,553.19l-0.07-0.09c-0.05,0.06-0.09,0.11-0.14,0.16C129.67,553.25,129.72,553.19,129.8,553.19z"/>
		<path d="M123.92,559.17c0.02-0.02,0.04-0.05,0.05-0.06h-0.01C123.94,559.13,123.93,559.16,123.92,559.17L123.92,559.17z"/>
		<path d="M126.49,556.14c-0.82,0.96-1.61,1.94-2.44,2.88c-0.01,0-0.01,0-0.01,0.02C124.9,558.11,125.68,557.11,126.49,556.14z"/>
		<path d="M123.97,559.11c-0.03,0.02-0.06,0.03-0.09,0.03l0.04,0.03C123.93,559.16,123.94,559.13,123.97,559.11z"/>
		<path d="M128.2,554.35c0.4-0.39,0.84-0.73,1.3-1.05c-2.91,0.71-4.39,2.98-5.45,5.72c0.83-0.94,1.63-1.93,2.44-2.88
			C127.03,555.52,127.6,554.9,128.2,554.35z"/>
		<path d="M126.49,556.14c-0.81,0.97-1.59,1.97-2.45,2.9c-0.01,0.02-0.02,0.05-0.03,0.05c2.88-0.71,3.65-3.73,5.44-5.64
			c-0.44,0.28-0.87,0.57-1.25,0.91C127.6,554.9,127.03,555.52,126.49,556.14z"/>
		<path d="M123.92,559.17l0.04,0.05c0.01-0.05,0.03-0.08,0.05-0.14c-0.01,0.02-0.02,0.02-0.03,0.03
			C123.96,559.13,123.94,559.16,123.92,559.17z"/>
		<path d="M130.72,567.38c-1.63,2.13-2.55,3.35-3.48,4.55C129.02,571.28,130.29,570.35,130.72,567.38z"/>
		<path d="M201.01,536.74c1.7-0.19,2.28-1.37,3.04-3.08C201.79,533.98,201.2,535.09,201.01,536.74z"/>
		<path d="M202.83,520.38c-1.95,0.65-2.71,2.04-3.07,3.7c0.17,0.57,0.43,0.68,0.67,0.28C201.22,523.11,203.04,522.51,202.83,520.38z
			"/>
		<path d="M133.25,565.28c-0.28,0.03-0.62,0.2-0.79,0.42c-0.12,0.17,0.02,0.54,0.05,0.82c0.41-0.17,0.82-0.35,1.26-0.54
			C133.55,565.66,133.39,565.28,133.25,565.28z"/>
		<path d="M109.7,546.1c6.21-5.03,10.77-11.84,16.51-17.41c3.3-3.19,6.21-6.81,9.3-10.25c-0.3-0.29-0.6-0.6-0.91-0.89
			c-8.22,9.59-18.31,17.24-25.24,28.18l0,0l0,0C109.47,545.87,109.58,545.98,109.7,546.1z"/>
		<path d="M109.7,546.1c-0.12-0.12-0.22-0.23-0.34-0.37c-1.53,0.45-2.6,1.19-2.04,3.22C108.75,548.47,109.29,547.35,109.7,546.1z"/>
		<path d="M109.36,545.73L109.36,545.73c0.12,0.14,0.22,0.25,0.34,0.37C109.58,545.98,109.47,545.87,109.36,545.73z"/>
		<path d="M95.14,545.02l0.15-0.03l-0.07-0.08C95.19,544.96,95.17,544.99,95.14,545.02z"/>
		<path d="M91.73,548.44c2.31-0.45,2.62-2.19,3.42-3.41C93.6,545.5,91.87,545.76,91.73,548.44z"/>
		<path d="M95.14,545.04c0.05-0.01,0.09-0.03,0.15-0.05l-0.15,0.03C95.14,545.02,95.14,545.02,95.14,545.04z"/>
		<path d="M109.49,528.74c0.04-0.03,0.07-0.03,0.1-0.06c-0.02-0.02-0.05-0.03-0.08-0.03C109.5,528.68,109.5,528.71,109.49,528.74z"
			/>
		<path d="M109.43,528.75c-0.14,0.25-0.29,0.49-0.42,0.72c0.13-0.23,0.29-0.42,0.45-0.62c0.02-0.05,0.02-0.08,0.03-0.12
			C109.47,528.74,109.44,528.75,109.43,528.75z"/>
		<path d="M109.59,528.68l-0.07-0.06c0,0.02-0.01,0.03-0.01,0.03C109.54,528.65,109.57,528.66,109.59,528.68z"/>
		<path d="M109.43,528.75c-0.77,0.45-1.8,0.63-1.6,2c1.04-0.2,1.44-0.96,1.63-1.9c-0.16,0.2-0.32,0.39-0.45,0.62
			C109.13,529.25,109.29,529,109.43,528.75z"/>
		<path d="M87.08,540.63c-1.02,0.39-1.19,1.33-1.38,2.21C86.19,542.14,87.2,541.81,87.08,540.63z"/>
		<path d="M85.6,542.95l0.05,0.06c0.02-0.06,0.03-0.12,0.05-0.18C85.67,542.88,85.63,542.89,85.6,542.95z"/>
	</g>
</g>
<rect x="255.62" y="507.43" fill="none" width="223.21" height="60.33"/>
<text transform="matrix(1 0 0 1 255.6226 557.4756)" font-family="'PlayfairDisplay-Black'" font-size="64">Pilze</text>
<rect x="255.62" y="569.7" fill="none" width="328.38" height="78.3"/>
<text transform="matrix(1 0 0 1 255.6226 619.7432)" font-family="'PlayfairDisplay-Black'" font-size="64">Nordheide</text>
</svg>
